<?xml version="1.0" encoding="UTF-8"?><svg xmlns="http://www.w3.org/2000/svg" viewBox="0 0 170.47 170.47"><defs><style>.d{fill:#ffd77f;}.e{fill:#ffd05d;}.f{fill:#fdc453;}.g{fill:#7cc4e8;}.h{fill:#303030;}.i{fill:#414042;}.j{fill:#62bbe8;}.k{fill:#5e4939;}</style></defs><g id="a"/><g id="b"><g id="c"><g><g><g><circle class="e" cx="85.24" cy="85.24" r="85.24" transform="translate(-35.31 85.24) rotate(-45)"/><path class="f" d="M129.83,12.49c8.49,13.25,13.41,29.01,13.41,45.91,0,47.07-38.16,85.24-85.24,85.24-16.35,0-31.62-4.61-44.59-12.59,15.15,23.65,41.66,39.32,71.83,39.32,47.07,0,85.24-38.16,85.24-85.24,0-30.73-16.26-57.65-40.64-72.65Z"/><path class="d" d="M11.58,94.23C11.58,50.52,47.02,15.09,90.72,15.09c25.55,0,48.26,12.11,62.73,30.9C139.79,22.26,114.17,6.29,84.83,6.29,41.13,6.29,5.69,41.72,5.69,85.43c0,18.16,6.12,34.89,16.41,48.24-6.69-11.61-10.52-25.08-10.52-39.44Z"/></g><g><path class="h" d="M60.11,64.56c0,5.85-2.81,10.59-6.28,10.59s-6.28-4.74-6.28-10.59,2.81-10.59,6.28-10.59,6.28,4.74,6.28,10.59Z"/><path class="h" d="M122.92,64.56c0,5.85-2.81,10.59-6.28,10.59s-6.28-4.74-6.28-10.59,2.81-10.59,6.28-10.59,6.28,4.74,6.28,10.59Z"/></g></g><g><path class="i" d="M135.58,46.69c-.92-.27-1.81-.52-2.68-.76-1.92-.54-3.72-1.04-5.47-1.65-2.61-.88-4.96-1.88-7.18-3.05-2.34-1.24-4.46-2.61-6.49-4.21-2.22-1.72-4.28-3.74-6.18-5.66-.11-.11-.27-.14-.41-.08-.14,.06-.23,.2-.22,.36,.14,2.91,1.29,5.92,3.33,8.7,1.86,2.52,4.36,4.64,7.21,6.13,2.69,1.41,5.69,2.28,8.71,2.5,.12,0,.23,.02,.35,.02,3.39,.18,6.44-.36,9.09-1.61,.14-.07,.22-.21,.21-.36-.01-.15-.12-.28-.27-.33Z"/><path class="i" d="M34.89,46.69c.92-.27,1.81-.52,2.68-.76,1.92-.54,3.72-1.04,5.47-1.65,2.61-.88,4.96-1.88,7.18-3.05,2.34-1.24,4.46-2.61,6.49-4.21,2.22-1.72,4.28-3.74,6.18-5.66,.11-.11,.27-.14,.41-.08,.14,.06,.23,.2,.22,.36-.14,2.91-1.29,5.92-3.33,8.7-1.86,2.52-4.36,4.64-7.21,6.13-2.69,1.41-5.69,2.28-8.71,2.5-.12,0-.23,.02-.35,.02-3.39,.18-6.44-.36-9.09-1.61-.14-.07-.22-.21-.21-.36,.01-.15,.12-.28,.27-.33Z"/></g><path class="k" d="M103.23,98.16c-4.85-4.2-11.42-6.57-18-6.45-6.47,.02-12.98,2.39-17.88,6.48-2.47,2.09-4.54,4.64-5.98,7.4-1.52,2.99-2.31,6.01-2.34,8.96,0,.71,.44,1.34,1.1,1.57,.67,.23,1.41,.01,1.84-.55,1.76-2.28,3.44-4.1,5.11-5.54,1.8-1.53,3.71-2.8,5.68-3.79,3.93-1.96,8.26-3.01,12.54-3.03,4.39-.03,8.55,.95,12.39,2.95,3.95,2.02,7.58,5.19,10.78,9.4,.32,.42,.81,.65,1.31,.65,.18,0,.36-.03,.54-.09,.67-.23,1.12-.87,1.11-1.58-.09-5.94-3.16-12.07-8.21-16.39Z"/><g><path class="g" d="M124.15,80.63c-25.25,28.88-22.45,45.44-22.45,45.44,0,12.4,10.05,22.45,22.45,22.45s22.45-10.05,22.45-22.45c0,0,2.8-16.56-22.45-45.44Z"/><path class="j" d="M107.46,141.08c4.11,4.56,10.06,7.44,16.69,7.44,12.4,0,22.45-10.05,22.45-22.45,0,0,1.17-6.96-4.88-19.72-4.47,29.1-22.74,34.4-34.26,34.73Z"/></g></g></g></g></svg>