<?xml version="1.0" encoding="UTF-8"?><svg xmlns="http://www.w3.org/2000/svg" viewBox="0 0 170.47 170.47"><defs><style>.d{fill:#ffd77f;}.e{fill:#ffd05d;}.f{fill:#fdc453;}.g{fill:#303030;}.h{fill:#414042;}.i{fill:#5e4939;}</style></defs><g id="a"/><g id="b"><g id="c"><g><g><g><circle class="e" cx="85.24" cy="85.24" r="85.24" transform="translate(-35.31 85.24) rotate(-45)"/><path class="f" d="M129.83,12.49c8.49,13.25,13.41,29.01,13.41,45.91,0,47.07-38.16,85.24-85.24,85.24-16.35,0-31.62-4.61-44.59-12.59,15.15,23.65,41.66,39.32,71.83,39.32,47.07,0,85.24-38.16,85.24-85.24,0-30.73-16.26-57.65-40.64-72.65Z"/><path class="d" d="M11.58,94.23C11.58,50.52,47.02,15.09,90.72,15.09c25.55,0,48.26,12.11,62.73,30.9C139.79,22.26,114.17,6.29,84.83,6.29,41.13,6.29,5.69,41.72,5.69,85.43c0,18.16,6.12,34.89,16.41,48.24-6.69-11.61-10.52-25.08-10.52-39.44Z"/></g><g><path class="g" d="M60.11,64.56c0,5.85-2.81,10.59-6.28,10.59s-6.28-4.74-6.28-10.59,2.81-10.59,6.28-10.59,6.28,4.74,6.28,10.59Z"/><path class="g" d="M122.92,64.56c0,5.85-2.81,10.59-6.28,10.59s-6.28-4.74-6.28-10.59,2.81-10.59,6.28-10.59,6.28,4.74,6.28,10.59Z"/></g></g><g><path class="h" d="M135.58,46.69c-.92-.27-1.81-.52-2.68-.76-1.92-.54-3.72-1.04-5.47-1.65-2.61-.88-4.96-1.88-7.18-3.05-2.34-1.24-4.46-2.61-6.49-4.21-2.22-1.72-4.28-3.74-6.18-5.66-.11-.11-.27-.14-.41-.08-.14,.06-.23,.2-.22,.36,.14,2.91,1.29,5.92,3.33,8.7,1.86,2.52,4.36,4.64,7.21,6.13,2.69,1.41,5.69,2.28,8.71,2.5,.12,0,.23,.02,.35,.02,3.39,.18,6.44-.36,9.09-1.61,.14-.07,.22-.21,.21-.36-.01-.15-.12-.28-.27-.33Z"/><path class="h" d="M34.89,46.69c.92-.27,1.81-.52,2.68-.76,1.92-.54,3.72-1.04,5.47-1.65,2.61-.88,4.96-1.88,7.18-3.05,2.34-1.24,4.46-2.61,6.49-4.21,2.22-1.72,4.28-3.74,6.18-5.66,.11-.11,.27-.14,.41-.08,.14,.06,.23,.2,.22,.36-.14,2.91-1.29,5.92-3.33,8.7-1.86,2.52-4.36,4.64-7.21,6.13-2.69,1.41-5.69,2.28-8.71,2.5-.12,0-.23,.02-.35,.02-3.39,.18-6.44-.36-9.09-1.61-.14-.07-.22-.21-.21-.36,.01-.15,.12-.28,.27-.33Z"/></g><path class="i" d="M53.01,121.92c-.89,.1-1.4-1-1.39-1.82,.04-3.79,1.05-7.66,3-11.5,1.85-3.53,4.5-6.81,7.67-9.49,6.29-5.26,14.65-8.29,22.94-8.32,8.44-.16,16.87,2.88,23.1,8.27,6.47,5.53,10.41,13.39,10.53,21.02,.01,.87-.57,2-1.54,1.82-.8-.14-1.45-1.23-2.04-1.72-.91-.76-1.85-1.47-2.82-2.15-1.93-1.36-3.95-2.58-6.04-3.69-7.68-4.1-16.38-6.31-25.1-5.55-5.55,.48-10.94,2.15-15.89,4.69-2.97,1.52-5.79,3.34-8.44,5.37-1.01,.77-2.66,2.83-3.9,3.07-.03,0-.05,0-.08,.01Z"/></g></g></g></svg>