<?xml version="1.0" encoding="UTF-8"?><svg xmlns="http://www.w3.org/2000/svg" viewBox="0 0 170.47 170.47"><defs><style>.d{fill:#695342;}.e{fill:#f06669;}.f{fill:#e62728;}.g{fill:#ffd77f;}.h{fill:#ffd05d;}.i{fill:#fdc453;}</style></defs><g id="a"/><g id="b"><g id="c"><g><g><circle class="h" cx="85.24" cy="85.24" r="85.24" transform="translate(-35.31 85.24) rotate(-45)"/><path class="i" d="M129.83,12.49c8.49,13.25,13.41,29.01,13.41,45.91,0,47.07-38.16,85.24-85.24,85.24-16.35,0-31.62-4.61-44.59-12.59,15.15,23.65,41.66,39.32,71.83,39.32,47.07,0,85.24-38.16,85.24-85.24,0-30.73-16.26-57.65-40.64-72.65Z"/><path class="g" d="M11.58,94.23C11.58,50.52,47.02,15.09,90.72,15.09c25.55,0,48.26,12.11,62.73,30.9C139.79,22.26,114.17,6.29,84.83,6.29,41.12,6.29,5.69,41.72,5.69,85.43c0,18.16,6.12,34.89,16.41,48.24-6.69-11.61-10.52-25.08-10.52-39.44Z"/></g><g><path class="d" d="M49.01,102.68c2.05,18.19,17.49,32.34,36.23,32.34s34.17-14.14,36.23-32.34H49.01Z"/><path class="e" d="M60.21,125.06c6.53,6.17,15.33,9.96,25.02,9.96s17.74-3.47,24.17-9.17l-.33-.78c-24.33-11.86-48.53-.16-48.86,0Z"/></g><g><path class="f" d="M73.48,60.45s0-.08,0-.13c0-7.87-5.69-15.08-14.25-15.08-6.8,0-10.75,4.89-12.09,9.46h0c-1.35-4.58-5.29-9.46-12.09-9.46-8.56,0-14.25,7.21-14.25,15.08,0,.04,0,.08,0,.13-.05,1.71,0,19.14,26.33,33.34h.02c26.34-14.2,26.38-31.63,26.33-33.34Z"/><path class="f" d="M149.67,60.45s0-.08,0-.13c0-7.87-5.69-15.08-14.25-15.08-6.8,0-10.75,4.89-12.09,9.46h0c-1.35-4.58-5.29-9.46-12.09-9.46-8.56,0-14.25,7.21-14.25,15.08,0,.04,0,.08,0,.13-.05,1.71,0,19.14,26.33,33.34h.02c26.34-14.2,26.38-31.63,26.33-33.34Z"/></g></g></g></g></svg>