<?xml version="1.0" encoding="UTF-8"?><svg xmlns="http://www.w3.org/2000/svg" viewBox="0 0 262.73 262.55"><g id="a"/><g id="b"><g id="c"><path d="M262.73,138.98c-.68,5.06-1.2,10.14-2.07,15.17-3.16,18.08-9.98,34.72-20.17,49.96-3.26,4.88-9.46,6.04-14.22,2.89-4.71-3.12-6.05-9.25-2.8-14.23,8.26-12.67,14.37-26.26,16.75-41.21,7.15-44.96-7.41-81.68-43.36-109.42-20.63-15.91-44.6-22.54-70.6-21.51C75.48,22.63,31.77,60.74,22.57,110.89c-10.14,55.31,21.87,109.09,75.5,125.95,31.11,9.78,61.06,6.13,89.43-10.03,2.68-1.53,5.36-2.65,8.5-2,4.2,.88,7.39,4.12,8.15,8.24,.77,4.17-1.1,8.34-4.98,10.69-11.1,6.72-22.95,11.66-35.55,14.8C94.32,275.83,24.79,235.71,5.03,167.05-15.63,95.26,29.4,19.33,102.26,3.27c6.15-1.36,12.48-1.89,18.72-2.82C121.73,.33,122.47,.15,123.22,0c5.47,0,10.94,0,16.41,0,.66,.14,1.31,.32,1.98,.42,6.74,1.05,13.58,1.67,20.21,3.18,50.58,11.56,90.37,53.89,98.93,105.05,.8,4.79,1.33,9.62,1.99,14.43v15.9Z"/><path d="M141.68,121.04c12.28,0,24.16-.04,36.03,.02,5.08,.03,9.16,3.64,10.02,8.6,.8,4.61-1.88,9.46-6.36,11.09-1.56,.57-3.33,.76-5.01,.77-10.51,.07-21.02,.03-31.53,.03h-3.15c0,1.04,0,1.94,0,2.84,0,11.02,.05,22.04-.03,33.06-.04,5.42-4.03,9.7-9.26,10.21-5.21,.5-9.98-3.05-11.03-8.27-.2-.99-.19-2.04-.19-3.06-.01-10.59,0-21.19,0-31.78v-3c-1.16,0-2.08,0-2.99,0-10.94,0-21.87,.04-32.81-.03-4.31-.03-7.53-2.04-9.38-5.97-1.76-3.75-1.24-7.36,1.25-10.6,2.11-2.75,5.04-3.93,8.51-3.92,10.77,.03,21.53,.01,32.3,.01h3.13c0-1.05,0-1.96,0-2.86,0-10.68,0-21.36,0-32.04,0-6.67,4.24-11.28,10.3-11.26,6.04,.02,10.2,4.63,10.21,11.35,.01,10.59,0,21.19,0,31.78v3.03Z"/></g></g></svg>