<?xml version="1.0" encoding="utf-8"?>
<!-- Generator: Adobe Illustrator 21.0.0, SVG Export Plug-In . SVG Version: 6.00 Build 0)  -->
<svg version="1.1" id="Layer_1" xmlns="http://www.w3.org/2000/svg" xmlns:xlink="http://www.w3.org/1999/xlink" x="0px" y="0px"
	 viewBox="0 0 100 100" style="enable-background:new 0 0 100 100;" xml:space="preserve">
<style type="text/css">
	.st0{fill:#55C4F0;}
	.st1{fill:#55C4F0;stroke:#55C4F0;stroke-width:0.25;stroke-miterlimit:10;}
	.st2{fill:#A07478;}
	.st3{fill:#A2757B;}
	.st4{fill:#A07278;}
	.st5{fill:#560327;}
	.st6{fill:#510324;}
	.st7{fill:#530626;}
	.st8{fill:#570426;}
	.st9{fill:#520425;}
	.st10{fill:#560E29;}
	.st11{fill:#540727;}
	.st12{fill:#530525;}
	.st13{fill:#530625;}
	.st14{fill:#500725;}
	.st15{fill:#530827;}
	.st16{fill:#55132A;}
	.st17{fill:#741F1F;}
	.st18{fill:#7E3029;}
	.st19{fill:#55C4F0;stroke:#55C4F0;stroke-width:0.5;stroke-miterlimit:10;}
	.st20{fill:none;stroke:#55C4F0;stroke-width:1.5;stroke-linecap:round;stroke-miterlimit:10;}
	.st21{fill:none;stroke:#55C4F0;stroke-width:1.4;stroke-linecap:round;stroke-miterlimit:10;}
</style>
<path class="st1" d="M82.2,60.1c0.7,0,0.7-0.5,0.7-1c0-0.5,0-1.1,0-1.6c0-0.5,0.1-1.1-0.7-1.1C82,56.4,82,56.1,82,56
	c-0.2-1.4-0.2-1.4-1.6-1.4c-0.3,0-0.6,0-0.9,0c-0.4,0-0.5-0.1-0.6-0.4c-0.4-1.7-1.6-2.7-3.1-3.5c-1.2-0.6-2.3-1.1-3.5-1.7
	c-0.4-0.2-0.7-0.3-0.6-0.8c0-0.3-0.1-0.5-0.5-0.5c-0.3,0-0.5,0.3-0.4,0.6c0.1,0.5-0.2,0.6-0.6,0.8c-1.3,0.6-2.6,1.2-3.8,1.9
	C65,51.5,64,52.5,63.6,54c-0.1,0.4-0.2,0.5-0.6,0.5c-0.7,0-1.3,0-1.1-1c0.2-0.7-0.5-1.7,0.8-2c0.2,0,0.1-0.4,0.1-0.6
	c0-0.6,0-1.1,0-1.7c0-0.5,0.2-1.2-0.7-1.2c-0.3,0-0.2-0.3-0.2-0.5c0-1.5,0-2.9,0-4.4c0-0.2-0.1-0.5,0.3-0.6c0.7,0,0.7-0.5,0.7-0.9
	c0-0.7,0-1.3,0-2c0-0.5-0.2-0.8-0.7-0.7c-1,0.2-1.2-0.3-1.1-1.2c0-0.2,0-0.4,0-0.5c0.2-0.8-0.5-1.8,0.8-2.2c0.1,0,0.1-0.3,0.1-0.5
	c0-0.4,0-0.8,0-1.2c0-0.4,0-0.9-0.6-0.9c-0.4,0-0.3-0.4-0.3-0.6c0.1-0.4-0.3-1,0.3-1.2c0.7-0.2,0.7-0.7,0.6-1.2
	c0-0.5,0.2-1.3-0.2-1.4c-0.8-0.3-0.7-0.9-0.8-1.5c-0.1-0.5-0.3-0.8-0.7-1.1c-0.3-0.2-0.7-0.4-0.6-0.8c0-0.2-0.1-0.4-0.4-0.4
	c-0.2,0-0.5,0.1-0.5,0.3c0.1,0.6-0.3,0.7-0.7,1c-0.4,0.3-0.6,0.7-0.7,1.1c-0.1,0.6,0.1,1.3-0.8,1.4c-0.1,0-0.2,0.2-0.2,0.4
	c0,0.6,0,1.1,0,1.7c0,0.2,0.1,0.4,0.3,0.4c0.8,0,0.6,0.6,0.7,1.1c0.2,0.7-0.5,0.7-0.8,1.1c-0.4,0.6-0.1,1.3-0.1,2
	c0,0.5,0.4,0.5,0.7,0.5c0.3,0.1,0.2,0.3,0.2,0.5c0,0.9,0,1.7,0,2.6c0,0.3,0,0.5-0.5,0.6c-1.3,0.1-1.3,0.1-1.3,1.5c0,0.3,0,0.7,0,1
	c0,0.5-0.2,1.1,0.7,1.1c0.3,0,0.2,0.4,0.2,0.6c0,1.4,0,2.9,0,4.3c0,0.2,0.2,0.5-0.2,0.6c-0.3,0.1-0.4-0.2-0.5-0.4
	c-0.5-0.9-1.3-1.6-2.2-2.1c-0.8-0.5-1.6-1-2.4-1.4c-0.5-0.3-0.9-0.5-0.8-1.1c0.1-0.3-0.1-0.5-0.4-0.5c-0.3,0-0.5,0.2-0.5,0.5
	c0.1,0.7-0.3,0.9-0.8,1.2c-1.6,1.1-3.5,1.9-4.5,3.7c-0.1,0.2-0.3,0.2-0.5,0.1c-0.2-0.1-0.1-0.3-0.1-0.5c0-1.5,0-2.9,0-4.4
	c0-0.2-0.1-0.5,0.3-0.5c0.6,0,0.6-0.5,0.6-1c0-0.5,0-1,0-1.5c0-1.2,0-1.2-1.2-1.2c-0.2,0-0.7,0.1-0.6-0.3c0.3-1.2-0.9-2.6,0.7-3.5
	c0.1,0,0.2-0.2,0.2-0.3c0-0.6,0-1.2,0-1.8c0-0.2-0.1-0.4-0.3-0.4c-0.7,0-0.6-0.5-0.6-1c0-0.4-0.2-1,0.6-1c0.2,0,0.3-0.3,0.3-0.6
	c0-0.5,0-1,0-1.4c0-0.3-0.1-0.6-0.4-0.6c-0.6,0-0.5-0.3-0.5-0.7c0-0.7-0.2-1.4-0.9-1.8c-0.3-0.2-0.6-0.3-0.6-0.8
	c0-0.3-0.2-0.4-0.4-0.4c-0.2,0-0.4,0.1-0.4,0.4c0.1,0.5-0.3,0.7-0.7,0.9c-0.3,0.2-0.5,0.5-0.6,0.8c-0.2,0.6,0.1,1.6-0.9,1.8
	c0,0,0,0,0,0.1c0,0.7,0,1.3,0,2c0,0.5,0.4,0.4,0.7,0.5c0.2,0,0.2,0.2,0.2,0.4c-0.1,0.6,0.4,1.4-0.7,1.6c-0.2,0-0.2,0.3-0.2,0.5
	c0,0.5,0,1.1,0,1.6c0,0.2,0.1,0.5,0.3,0.5c0.8,0,0.6,0.6,0.6,1c0,0.6,0,1.3,0,1.9c0.1,0.7-0.2,0.9-0.8,0.8c-0.8-0.1-1.1,0.3-1,1
	c0,0.5,0,1,0,1.5c0,0.5-0.1,1.1,0.7,1.2c0.3,0,0.2,0.3,0.2,0.5c0,1.5,0,2.9,0,4.4c0,0.2,0.1,0.5-0.3,0.5c-0.6,0-0.6,0.5-0.6,1
	c0,0.5,0,1.1,0,1.6c0,0.5-0.1,1.1,0.7,1.2c0.3,0,0.2,0.3,0.2,0.4c0,0.3,0,0.7,0,1c0,1.3,0,1.3-1.3,1.3c-0.3,0-0.7,0.2-0.9-0.4
	c-0.4-1.5-1.4-2.6-2.8-3.3c-1.3-0.6-2.6-1.3-3.8-1.9c-0.4-0.2-0.7-0.3-0.6-0.8c0-0.2-0.1-0.5-0.4-0.5c-0.3,0-0.5,0.2-0.5,0.5
	c0.1,0.6-0.4,0.7-0.8,0.9c-1.3,0.6-2.6,1.2-3.8,1.9c-1.3,0.7-2.2,1.6-2.6,3c-0.1,0.5-0.4,0.7-0.8,0.6c-0.3,0-0.5,0-0.8,0
	c-0.7-0.1-1,0.2-1,1c0,0.3,0.2,0.8-0.2,0.8c-0.8,0.1-0.7,0.6-0.7,1.1c0,0.5,0,1,0,1.5c0,0.5-0.1,1,0.7,1.1c0.3,0,0.2,0.4,0.2,0.6
	c0,4.5,0,8.9,0,13.4c0,0.3,0,0.7-0.5,0.6c-0.3,0-0.4,0.2-0.4,0.5c0,0.3,0.2,0.4,0.5,0.4c0.2,0,0.5,0,0.7,0c10.5,0,21.1,0,31.6,0
	c10.6,0,21.1,0,31.7,0c0.3,0,0.5,0,0.8,0c0.3,0,0.4-0.2,0.5-0.5c0-0.2-0.1-0.4-0.4-0.4c-0.4,0-0.5-0.1-0.5-0.5c0-4.5,0-9.1,0-13.6
	C82,60.4,81.9,60.1,82.2,60.1z M80.6,55.5c0.3,0,0.5,0.1,0.5,0.4c0,0.3-0.1,0.5-0.4,0.5c-0.3,0-0.5,0-0.5-0.4
	C80.2,55.7,80.2,55.5,80.6,55.5z M79.1,55.5c0.4,0.1,0.3,0.5,0.1,0.9l0,0c-0.5,0.3-1,0.1-1.4,0.1c-0.3,0-0.4-0.2-0.4-0.4
	c0-0.2-0.1-0.6,0.2-0.6C78.1,55.4,78.6,55.4,79.1,55.5z M66.5,51.8c1.4-0.7,2.8-1.4,4.2-2.1c0.4-0.2,0.6-0.2,1,0
	c1.3,0.6,2.6,1.2,3.8,1.9c1,0.5,1.9,1.3,2.3,2.4c0.1,0.3,0.2,0.6-0.3,0.6c-4.4,0-8.7,0-13.1,0C64.6,53.2,65.4,52.4,66.5,51.8z
	 M76.5,55.9c0,0.7-0.5,0.4-0.9,0.5c-0.3-0.1-1,0.3-0.9-0.5c0-0.7,0.6-0.4,0.9-0.4C75.9,55.5,76.5,55.2,76.5,55.9z M73.8,55.9
	c0,0.8-0.7,0.5-1.1,0.5c-0.3,0-0.8,0.2-0.8-0.5c0-0.9,0.7-0.4,1-0.5C73.3,55.5,73.8,55.3,73.8,55.9z M71,56c0,0.7-0.6,0.3-0.9,0.4
	c-0.3-0.2-0.9,0.3-0.9-0.4c0-0.7,0.5-0.5,0.9-0.5C70.4,55.5,71,55.2,71,56z M68.3,55.9c0,0.8-0.6,0.4-0.9,0.5
	c-0.4-0.1-0.9,0.2-0.9-0.5c0-0.7,0.6-0.5,0.9-0.4C67.7,55.5,68.3,55.2,68.3,55.9z M64.6,55.5c0.3,0,0.9-0.3,0.9,0.4
	c0,0.8-0.6,0.3-0.9,0.5c-0.3-0.2-0.9,0.3-1-0.5C63.7,55.2,64.3,55.5,64.6,55.5z M62.3,55.5c0.3,0,0.5,0.1,0.4,0.5
	c0,0.3-0.1,0.5-0.4,0.5c-0.3,0-0.5-0.1-0.5-0.5C61.9,55.6,62,55.5,62.3,55.5z M59.2,26.3c0.7,0,0.9,0.5,0.9,1.2
	c0.1,0.8-0.5,0.6-0.9,0.6c-0.5,0-1,0.1-1-0.7C58.3,26.8,58.4,26.3,59.2,26.3z M57.3,29.5c0-0.3,0.1-0.4,0.4-0.4c0.9,0,1.9,0,2.8,0
	c0.3,0,0.4,0.2,0.4,0.4c0,0.3-0.1,0.5-0.4,0.5c-0.5,0-0.9,0-1.4,0c-0.4,0-0.9,0-1.3,0C57.4,30,57.3,29.8,57.3,29.5z M59.1,32.7
	c-0.9,0.1-0.8-0.4-0.8-1c-0.1-0.9,0.4-0.8,1-0.9c0.8,0,1,0.2,0.8,0.9C60.3,32.7,59.7,32.6,59.1,32.7z M57.3,34
	c0-0.3,0.1-0.5,0.5-0.5c0.9,0,1.8,0,2.7,0c0.4,0,0.4,0.2,0.4,0.5c0,0.3-0.1,0.4-0.4,0.4c-0.5,0-0.9,0-1.4,0c-0.4,0-0.9,0-1.3,0
	C57.5,34.5,57.3,34.4,57.3,34z M58.2,36.2c-0.1-0.7,0.2-0.8,0.8-0.8c0.8,0,1.1,0.2,1,1c0,0.3,0,0.6,0,0.9c0,0.3,0,0.6,0,0.9
	c0.1,0.7-0.2,0.8-0.9,0.9c-0.8,0-1-0.2-1-1C58.3,37.5,58.3,36.8,58.2,36.2z M56.4,40.9c0-0.4-0.2-0.9,0.5-0.9c1.5,0,3,0,4.4,0
	c0.7,0,0.5,0.6,0.5,0.9c0,0.4,0.3,1-0.5,1c-0.8,0-1.5,0-2.3,0c-0.7,0-1.4,0-2.1,0C56.1,41.8,56.4,41.3,56.4,40.9z M61,47.6
	c0,0.4-0.1,0.6-0.5,0.6c-0.9,0-1.7,0-2.6,0c-0.5,0-0.5-0.2-0.5-0.6c0-1.4,0-2.8,0-4.3c0-0.4,0.1-0.6,0.5-0.6c0.9,0,1.7,0,2.6,0
	c0.5,0,0.5,0.2,0.5,0.6c0,0.7,0,1.5,0,2.2C61,46.2,60.9,46.9,61,47.6z M46.4,47c1.1-0.7,2.2-1.4,3.2-2c0.3-0.2,0.5-0.2,0.8,0
	c1,0.7,2.1,1.3,3.1,1.9c1.2,0.8,1.9,1.9,2,3.3c0,0.5-0.1,0.7-0.7,0.7c-1.6,0-3.3,0-4.9,0c-1.6,0-3.2,0-4.7,0c-0.5,0-0.7-0.2-0.6-0.7
	C44.6,48.9,45.2,47.8,46.4,47z M53.6,52.3c0,0.8-0.6,0.3-0.9,0.5c-0.3-0.1-0.9,0.3-0.9-0.4c0-0.8,0.6-0.4,1-0.5
	C53.1,51.9,53.6,51.6,53.6,52.3z M50.9,52.3c0,0.8-0.6,0.3-0.9,0.5c-0.3-0.1-0.9,0.3-0.9-0.5c0-0.7,0.6-0.4,0.9-0.4
	C50.4,51.9,51,51.6,50.9,52.3z M48.2,52.3c0.1,0.8-0.5,0.4-0.9,0.5c-0.3-0.2-0.9,0.3-0.9-0.4c0-0.8,0.5-0.5,0.9-0.5
	C47.5,51.9,48.1,51.5,48.2,52.3z M44.5,51.9c0.3,0,1-0.4,1,0.5c0,0.7-0.6,0.3-0.8,0.5c-0.4-0.2-1,0.3-1-0.5
	C43.6,51.6,44.2,51.9,44.5,51.9z M39.9,27.5c0.1-0.6,0.2-1.2,0.9-1.1c0.7,0,0.9,0.5,0.9,1.2c0.1,0.8-0.4,0.7-0.9,0.7
	C40.4,28.1,39.8,28.3,39.9,27.5z M39,29.5c0-0.3,0.1-0.5,0.5-0.5c0.9,0,1.8,0,2.8,0c0.3,0,0.5,0.1,0.5,0.4c0,0.3-0.1,0.5-0.5,0.5
	c-0.5,0-0.9,0-1.4,0c-0.4,0-0.9,0-1.3,0C39.2,29.9,39,29.9,39,29.5z M41.8,31.7c0,0.8-0.2,1-1,1c-0.7,0-1-0.2-1-0.9
	c0-0.8,0.2-1.1,1-0.9C41.6,30.7,41.8,31,41.8,31.7z M39,34c0-0.4,0.2-0.4,0.5-0.4c0.9,0,1.8,0,2.7,0c0.3,0,0.5,0.2,0.5,0.5
	c0,0.4-0.2,0.4-0.5,0.4c-0.5,0-0.9,0-1.4,0c0,0,0,0,0,0c-0.4,0-0.8,0-1.2,0C39.2,34.5,39,34.4,39,34z M39.9,36.2
	c-0.1-0.8,0.3-0.8,0.9-0.8c0.6,0,1.1-0.1,1,0.8c-0.1,0.3,0,0.7,0,1.1c0,0,0,0,0,0c0,0.3,0,0.5,0,0.8c0.2,0.9-0.3,1-1,1
	c-0.6,0-0.9-0.1-0.8-0.8C40,37.6,40,36.9,39.9,36.2z M38.1,40.9c0-0.4-0.3-1,0.5-1c1.5,0,3,0,4.4,0c0.7,0,0.5,0.4,0.5,0.8
	c-0.1,0.4,0.4,1-0.5,1.1c-0.8,0-1.5,0-2.3,0c0,0,0,0,0,0c-0.7,0-1.4,0-2.1,0C37.9,41.9,38.1,41.3,38.1,40.9z M39,45.4
	c0-0.7,0-1.3,0-2c0-0.5,0.1-0.8,0.7-0.7c0.8,0,1.6,0,2.4,0c0.4,0,0.6,0.1,0.6,0.6c0,1.4,0,2.8,0,4.3c0,0.5-0.2,0.6-0.6,0.6
	c-0.8,0-1.6,0-2.4,0c-0.6,0-0.7-0.2-0.7-0.7C39.1,46.8,39,46.1,39,45.4z M37.7,55.5c0.4,0,0.4,0.2,0.4,0.5c0,0.3-0.1,0.5-0.4,0.5
	c-0.3,0-0.5-0.1-0.5-0.4C37.2,55.7,37.3,55.5,37.7,55.5z M36.3,55.9c0,0.7-0.6,0.4-0.9,0.5c-0.3-0.1-0.9,0.3-0.9-0.5
	c0-0.7,0.5-0.5,0.9-0.5C35.7,55.5,36.3,55.2,36.3,55.9z M21.7,53.7c0.4-0.9,1.1-1.5,1.9-1.9c1.4-0.7,2.8-1.3,4.1-2
	c0.4-0.2,0.6-0.2,1,0c1.3,0.7,2.6,1.3,3.9,1.9c0.9,0.5,1.7,1.2,2.2,2.1c0.3,0.5,0.3,0.8-0.5,0.8c-2,0-4.1,0-6.1,0c-2,0-4,0-6,0
	C21.4,54.6,21.3,54.5,21.7,53.7z M33.5,56.3L33.5,56.3c-0.5,0.3-1,0.1-1.5,0.1c-0.3,0-0.4-0.2-0.4-0.4c0-0.2-0.1-0.6,0.2-0.6
	c0.5-0.1,1-0.1,1.5,0C33.8,55.6,33.7,56,33.5,56.3z M30.8,56c0,0.7-0.6,0.4-0.9,0.4c-0.3,0-0.9,0.3-0.9-0.5c0-0.8,0.6-0.3,1-0.5
	C30.3,55.5,30.9,55.3,30.8,56z M28.1,55.9c0,0.8-0.6,0.4-0.9,0.6c-0.3-0.1-0.9,0.3-0.9-0.5c0-0.8,0.6-0.5,0.9-0.5
	C27.5,55.5,28.1,55.2,28.1,55.9z M25.3,56c0,0.7-0.6,0.4-0.9,0.5c-0.4-0.1-1,0.3-0.9-0.5c0-0.7,0.6-0.4,0.9-0.4
	C24.8,55.5,25.4,55.2,25.3,56z M21.7,55.5c0.3,0,0.9-0.3,0.9,0.5c0,0.8-0.6,0.3-0.9,0.5c-0.4-0.2-1,0.2-1-0.5
	C20.8,55.2,21.4,55.5,21.7,55.5z M19.4,55.5c0.3,0,0.5,0.1,0.5,0.4c0,0.3-0.1,0.5-0.4,0.5c-0.3,0-0.5-0.1-0.5-0.4
	C19,55.7,19,55.5,19.4,55.5z M32.6,74c0,0.5-0.1,0.7-0.7,0.7c-1.1,0-2.3,0-3.4,0c-1.2,0-2.4,0-3.6,0c-0.3,0-0.6,0-0.6-0.4
	c0-2-0.1-4.1,0.1-6.1c0.2-2.4,1.8-3.8,3.8-5c0.2-0.1,0.4-0.1,0.6,0c2.4,1.3,3.9,3.1,3.8,5.9C32.6,70.7,32.6,72.4,32.6,74z
	 M38.1,73.9c0,0.6-0.2,0.8-0.8,0.8c-1-0.1-2-0.1-3,0c-0.7,0-0.8-0.2-0.8-0.8c0-1.8,0-3.6,0-5.4c-0.1-2.4-1.2-4.1-3.2-5.5
	c-1.3-0.9-2.2-1-3.5,0c-2.1,1.5-3.3,3.4-3.2,6c0,1.7,0,3.3,0,5c0,0.6-0.1,0.8-0.7,0.8c-1.1-0.1-2.1,0-3.2,0c-0.5,0-0.7-0.1-0.7-0.6
	c0-4.5,0-8.9,0-13.4c0-0.6,0.3-0.6,0.7-0.6c2.9,0,5.9,0,8.8,0c2.9,0,5.8,0,8.7,0c0.6,0,0.8,0.1,0.8,0.8
	C38.1,65.2,38.1,69.6,38.1,73.9z M37.3,59.2c-3.1,0-6.1,0-9.2,0c-3.1,0-6.2,0-9.3,0c-0.8,0-0.8-0.3-0.8-0.9c0-0.6,0.1-0.9,0.9-0.9
	c6.2,0,12.3,0,18.5,0c0.9,0,0.8,0.5,0.8,1C38.2,59,38,59.2,37.3,59.2z M42.7,63.4c0,3.5,0,7,0,10.5c0,0.6-0.1,0.9-0.8,0.8
	c-0.8-0.1-1.5,0-2.3,0c-0.5,0-0.6-0.2-0.6-0.6c0-7.2,0-14.4,0-21.7c0-0.4,0.1-0.6,0.5-0.6c0,0,0.1,0,0.1,0c1,0,2.3-0.3,2.9,0.2
	c0.6,0.5,0.2,1.8,0.2,2.8C42.7,57.7,42.7,60.5,42.7,63.4z M43,51c-0.7-0.1-1.4,0-2.1,0c-0.7,0-1.3-0.1-2,0c-0.9,0.1-0.7-0.5-0.8-1
	c0-0.5,0-1,0.8-0.9c1.4,0.1,2.7,0.1,4.1,0c0.9,0,0.7,0.5,0.7,1C43.6,50.5,43.8,51,43,51z M55.7,74.7c-1.9,0-3.9,0-5.8,0
	c-1.9,0-3.8,0-5.7,0c-0.3,0-0.6,0.1-0.6-0.4c0.1-2.6-0.2-5.2,0.2-7.8c0.4-2.4,1.7-4.2,3.7-5.6c0.8-0.6,1.6-1.5,2.5-1.5
	c0.8,0,1.7,0.9,2.5,1.5c2.5,1.6,3.8,3.9,3.9,6.8c0.1,2.1,0,4.2,0,6.3C56.4,74.6,56.2,74.7,55.7,74.7z M43.6,57.1
	c0-0.6,0.2-0.7,0.7-0.7c3.8,0,7.6,0,11.4,0c0.3,0,0.7-0.1,0.7,0.5c0,2.2,0,4.4,0,6.7c-1.4-2.5-3.8-3.7-6-5.1c-0.3-0.2-0.5-0.2-0.8,0
	c-2.2,1.5-4.6,2.7-5.9,5.2c0-1.4,0-2.8,0-4.2C43.6,58.7,43.7,57.9,43.6,57.1z M55.7,55.5c-3.7,0-7.5,0-11.2,0c-0.9,0-0.8-0.5-0.8-1
	c-0.1-0.7,0.2-0.8,0.8-0.8c1.9,0,3.7,0,5.6,0c1.9,0,3.7,0,5.6,0c1,0,0.6,0.7,0.7,1.1C56.5,55.4,56.2,55.5,55.7,55.5z M55.4,52.8
	c-0.3-0.2-0.9,0.2-0.9-0.5c0-0.9,0.7-0.4,1-0.5c0.3,0,0.8-0.2,0.8,0.4C56.4,53.1,55.7,52.6,55.4,52.8z M61,63.2c0,3.5,0,7.1,0,10.6
	c0,0.7-0.2,0.9-0.9,0.9c-0.6-0.1-1.3-0.1-1.9,0c-0.7,0.1-0.9-0.1-0.9-0.9c0-5.3,0-10.5,0-15.8c0-1.8,0-3.6,0-5.3
	c0-0.7,0.2-0.9,0.9-0.9c0.6,0.1,1.3,0.1,1.9,0c0.7-0.1,0.9,0.1,0.9,0.9C60.9,56.2,61,59.7,61,63.2z M61.4,51c-0.8,0-1.5,0-2.3,0
	c-0.7,0-1.4,0-2,0c-0.6,0-0.7-0.3-0.6-0.8c0.1-0.4-0.4-1.1,0.5-1.1c1.5,0,3,0,4.4,0c0.8,0,0.4,0.6,0.5,1C61.9,50.4,62.1,51,61.4,51z
	 M75.6,74.1c0,0.5-0.1,0.7-0.6,0.7c-1.2,0-2.3,0-3.5,0c-1.1,0-2.3,0-3.4,0c-0.5,0-0.7-0.1-0.7-0.7c0-1.8,0-3.7,0-5.5
	c0-2.2,1.8-4.6,3.9-5.4c0.2-0.1,0.4,0,0.6,0.1c2.4,1.3,3.9,3.1,3.8,6C75.5,70.8,75.6,72.5,75.6,74.1z M81.1,74
	c0,0.5-0.1,0.7-0.7,0.7c-1.1,0-2.2,0-3.3,0c-0.6,0-0.7-0.2-0.7-0.7c0-1.7,0-3.4,0-5.1c0-2.6-1-4.5-3.2-5.9c-1.8-1.1-1.7-1.1-3.5,0
	c-2.2,1.4-3.2,3.3-3.2,5.9c0,1.7,0,3.4,0,5.1c0,0.5-0.1,0.7-0.7,0.7c-1.1,0-2.2,0-3.3,0c-0.4,0-0.6-0.1-0.6-0.6c0-4.5,0-9,0-13.6
	c0-0.7,0.4-0.5,0.8-0.5c2.9,0,5.9,0,8.8,0c2.9,0,5.9,0,8.8,0c0.6,0,0.7,0.1,0.7,0.7C81.1,65.2,81.1,69.6,81.1,74z M81.2,59.2
	c-6.1,0-12.3,0-18.4,0c-0.8,0-0.9-0.3-0.9-1c0-0.7,0.2-0.9,0.9-0.9c3.1,0,6.1,0,9.2,0c3.1,0,6.2,0,9.3,0c0.8,0,0.8,0.3,0.8,0.9
	C82,58.9,81.9,59.2,81.2,59.2z"/>
</svg>
