<?xml version="1.0" encoding="utf-8"?>
<!-- Generator: Adobe Illustrator 21.0.0, SVG Export Plug-In . SVG Version: 6.00 Build 0)  -->
<svg version="1.1" id="Layer_1" xmlns="http://www.w3.org/2000/svg" xmlns:xlink="http://www.w3.org/1999/xlink" x="0px" y="0px"
	 viewBox="0 0 100 100" style="enable-background:new 0 0 100 100;" xml:space="preserve">
<style type="text/css">
	.st0{fill:#54C2EF;}
</style>
<path class="st0" d="M94,85.6h-4.4V63.5h0.2c0.4,0,0.7-0.3,0.7-0.7c0-0.4-0.3-0.7-0.7-0.7c0.1-0.4,0.1-0.8,0-1.2
	c-0.1-0.8-0.5-1.5-1.2-2L86.1,57v-0.9c0-0.4-0.3-0.7-0.7-0.7c-0.4,0-0.7,0.3-0.7,0.7c0,0,0,0,0,0V57l-2.3,1.8
	c-0.7,0.5-1.1,1.2-1.2,2c-0.1,0.4-0.1,0.8,0,1.2H81c-0.4,0-0.7,0.3-0.7,0.7c0,0.4,0.3,0.7,0.7,0.7h0.4v3.7H71.1v-3.7h0.2
	c0.4,0,0.7-0.3,0.7-0.7c0-0.4-0.3-0.7-0.7-0.7c0.1-0.4,0.1-0.8,0-1.2c-0.1-0.8-0.6-1.5-1.2-2L67.6,57v-0.9c0-0.4-0.3-0.7-0.7-0.7
	c-0.4,0-0.7,0.3-0.7,0.7V57l-2.3,1.8c-0.7,0.5-1.1,1.2-1.2,2c-0.1,0.4-0.1,0.8,0,1.2h-0.2c-0.4,0-0.7,0.3-0.7,0.7
	c0,0.4,0.3,0.7,0.7,0.7h0.4v1.1h-0.3l-3.1-2.2c0,0,0,0,0-0.1v-1.8c0-1.2-0.8-2.2-2-2.4c0-0.1,0-0.2,0-0.2v-3.5
	c0.2,0,0.4-0.1,0.5-0.2c1.2-1.3,1.7-3.1,1.4-4.8c-0.1-0.8-0.4-1.5-0.8-2.1c0,0,0-0.1,0-0.1v-2.4c0-0.4-0.3-0.7-0.7-0.7c0,0,0,0,0,0
	c-0.4,0-0.7,0.3-0.7,0.7v0.9c-0.2-0.1-0.4-0.3-0.6-0.4l-5.3-3.5v-3c0-1.2-1-2.3-2.3-2.3h-0.2c-1.3,0-2.3,1-2.3,2.2c0,0,0,0,0,0v3
	l-5.5,3.4c-0.2,0.1-0.4,0.3-0.6,0.4v-0.9c0-0.4-0.3-0.7-0.7-0.7c-0.4,0-0.7,0.3-0.7,0.7v2.4c0,0,0,0.1,0,0.1
	c-0.4,0.7-0.7,1.4-0.8,2.1c-0.3,1.7,0.3,3.5,1.4,4.8c0.1,0.1,0.3,0.2,0.5,0.2v3.5c0,0.1,0,0.2,0,0.2c-1.2,0.2-2,1.2-2,2.4v1.8
	c0,0,0,0,0,0.1l-3.1,2.2h-0.3v-1.1h0.2c0.4,0,0.7-0.3,0.7-0.7c0-0.4-0.3-0.7-0.7-0.7c0.1-0.4,0.1-0.8,0-1.2c-0.1-0.8-0.6-1.5-1.2-2
	L31.3,57v-0.9c0-0.4-0.3-0.7-0.7-0.7c-0.4,0-0.7,0.3-0.7,0.7V57l-2.3,1.8c-0.7,0.5-1.1,1.2-1.2,2c-0.1,0.4-0.1,0.8,0,1.2h-0.2
	c-0.4,0-0.7,0.3-0.7,0.7c0,0.4,0.3,0.7,0.7,0.7l0,0h0.4v3.7H16.3v-3.7h0.3c0.4,0,0.7-0.3,0.7-0.7c0-0.4-0.3-0.7-0.7-0.7h-0.1
	c0.1-0.4,0.1-0.8,0-1.2c-0.1-0.8-0.5-1.5-1.2-2L12.9,57v-0.9c0-0.4-0.3-0.7-0.7-0.7s-0.7,0.3-0.7,0.7V57l-2.3,1.8
	c-0.6,0.5-1.1,1.2-1.2,2c-0.1,0.4-0.1,0.8,0,1.2H7.8c-0.4,0-0.7,0.3-0.7,0.7c0,0.4,0.3,0.7,0.7,0.7l0,0h0.3v22.1H3.8
	C3.4,85.6,3,85.8,3,86.2C2.9,86.6,3.2,87,3.6,87c0.1,0,0.1,0,0.2,0H94c0.4,0.1,0.8-0.2,0.8-0.6c0.1-0.4-0.2-0.8-0.6-0.8
	C94.1,85.6,94,85.6,94,85.6z M22.2,82.9v-1.8c0-0.4-0.3-0.7-0.7-0.7c-0.4,0-0.7,0.3-0.7,0.7v1.8h-4.5v-4.8h10.4v4.8H22.2z
	 M12.9,82.9v-1.8c0-0.4-0.3-0.7-0.7-0.7s-0.7,0.3-0.7,0.7v1.8H9.6v-4.8h5.2v4.8H12.9z M35.3,66.1h11.4c0,0.2,0,0.3,0,0.5v0.7H33.7
	v-1.2H35.3z M64,66.1v1.2H51.2v-0.7c0-0.2,0-0.3-0.1-0.5L64,66.1L64,66.1z M85.5,80.5c-0.4,0-0.7,0.3-0.7,0.7v1.7h-1.9v-4.8h5.2v4.8
	h-1.9v-1.8c0-0.4-0.3-0.7-0.7-0.7L85.5,80.5z M77,82.9v-1.8c0-0.4-0.3-0.7-0.7-0.7c-0.4,0-0.7,0.3-0.7,0.7v1.8h-4.5v-4.8h10.4v4.8
	H77z M66.9,82.9h-2.4v-4.8h5.2v4.8H66.9z M42.3,68.7v2h-4.9v-2H42.3z M45,68.7v2.7l0,0V75l0,0v5.3h-1.2V68.7H45z M47.3,68.7h4v2
	h-4.9v-2H47.3z M54,68.7v11.6h-1.2V68.7H54z M60.3,68.7v2h-4.9v-2H60.3z M63,68.7v11.6h-1.2V68.7H63z M34.8,81.7H63v1.2H34.8V81.7z
	 M42.3,74.3h-4.9v-2.2h4.9V74.3z M37.4,75.7h4.9v4.6h-4.9V75.7z M51.3,74.3h-4.9v-2.2h4.9L51.3,74.3z M46.5,75.7h4.9v4.6h-4.9V75.7z
	 M60.4,74.3h-5v-2.2h4.9L60.4,74.3z M55.4,75.7h4.9v4.6h-4.9V75.7z M36,80.3h-1.2V68.7H36V80.3z M82.9,63.5h5.2v7.2h-5.2V63.5z
	 M88.1,72.1v4.6h-5.2v-4.6H88.1z M81.5,76.8H71.1v-4.6h10.4L81.5,76.8z M69.6,76.8h-5.2v-4.6h5.2L69.6,76.8z M49.7,66.6v0.7H48v-0.7
	c0.1-0.6,0.4-1.1,0.8-1.5C49.3,65.4,49.6,66,49.7,66.6z M33.3,76.8h-5.2v-4.7h5.2V76.8z M26.7,76.8H16.3v-4.7h10.4V76.8z M9.6,72.1
	h5.2v4.6H9.6V72.1z M9.6,63.5h5.2v7.2H9.6V63.5z M28.1,78.2h5.2V83h-5.2V78.2z M67.7,84.4h20.4v1.2H67.7V84.4z M82.6,61.1
	c0.1-0.4,0.3-0.8,0.6-1.1l2.2-1.7l2.4,1.7c0.3,0.3,0.5,0.6,0.6,1c0,0.3,0,0.7-0.1,1h-5.5C82.6,61.7,82.6,61.4,82.6,61.1z M81.4,68.7
	v2H71.1v-2H81.4z M64.1,61.1c0.1-0.4,0.3-0.8,0.6-1.1l2.2-1.7l2.4,1.7c0.3,0.3,0.5,0.6,0.6,1c0.1,0.3,0,0.7-0.1,1h-5.5
	C64.1,61.7,64.1,61.4,64.1,61.1z M64.5,63.5h5.2v7.2h-5.2v-2.1h0.4c0.4,0,0.7-0.3,0.7-0.7v-2.6c0-0.4-0.3-0.7-0.7-0.7h-0.4V63.5z
	 M53.1,55.8c-0.4,0-0.7,0.3-0.7,0.7v1.7h-2.8v-1.6c0-0.4-0.3-0.7-0.7-0.7c-0.4,0-0.7,0.3-0.7,0.7v1.7h-2.8v-1.7
	c0-0.4-0.3-0.7-0.7-0.7c-0.4,0-0.7,0.3-0.7,0.7v1.7h-2.4c0-0.1,0-0.1,0-0.2v-3.5h14.6v3.5c0,0.1,0,0.1,0,0.2h-2.4v-1.6
	C53.8,56.1,53.5,55.8,53.1,55.8C53.1,55.8,53.1,55.8,53.1,55.8L53.1,55.8z M50.4,43l5.6,3.4c1.1,0.7,1.9,1.9,2.1,3.2
	c0.2,1.2-0.1,2.4-0.9,3.4h-6v-1.5c0-0.3-0.1-0.6-0.2-0.9c-0.3-0.8-1-1.5-1.8-1.9c-0.2-0.1-0.4-0.1-0.6,0c-0.8,0.4-1.5,1.1-1.9,1.9
	c-0.1,0.3-0.2,0.7-0.2,1v1.5h-6.1c-0.7-1-1.1-2.2-0.9-3.4c0.2-1.3,1-2.5,2.1-3.2l5.6-3.4L50.4,43z M48.1,51.5c0-0.2,0-0.3,0.1-0.5
	c0.2-0.4,0.4-0.7,0.8-0.9c0.3,0.2,0.6,0.5,0.8,0.9c0.1,0.2,0.1,0.3,0.1,0.5V53H48L48.1,51.5z M49,38c0.4,0,0.8,0.3,0.8,0.8
	c0,0,0,0,0,0v2.8h-1.9v-2.8c0-0.4,0.3-0.8,0.8-0.8c0,0,0,0,0,0H49z M39.6,60.6c0-0.5,0.4-1,1-1c0,0,0,0,0,0h16.6c0.5,0,1,0.4,1,1
	v1.1H39.6V60.6z M39.8,63.1H58l2.2,1.5h-9.8c-0.3-0.4-0.7-0.8-1.1-1.1c-0.3-0.2-0.6-0.2-0.9,0c-0.4,0.3-0.7,0.7-1.1,1.1h-9.8
	L39.8,63.1z M33,64.6c-0.4,0-0.7,0.3-0.7,0.7v2.6c0,0.4,0.3,0.7,0.7,0.7h0.4v2h-5.2v-7.2h5.2v1.1L33,64.6z M27.8,61
	c0-0.4,0.3-0.8,0.6-1.1l2.2-1.7L33,60c0.3,0.3,0.5,0.6,0.6,1c0.1,0.3,0,0.7-0.1,1H28C27.8,61.7,27.8,61.4,27.8,61L27.8,61z
	 M26.6,68.6v2H16.3v-2L26.6,68.6z M9.3,61.1c0-0.4,0.3-0.8,0.6-1.1l2.2-1.7l2.4,1.7c0.3,0.3,0.5,0.6,0.6,1c0.1,0.3,0,0.7-0.1,1H9.5
	C9.3,61.7,9.3,61.4,9.3,61.1z M9.6,84.4h20.3v1.2H9.6L9.6,84.4z M31.3,85.6v-1.1h35v1.1H31.3z"/>
</svg>
