<?xml version="1.0" encoding="UTF-8"?><svg xmlns="http://www.w3.org/2000/svg" viewBox="0 0 357.08 396.1"><defs><style>.d{fill:#3d3d3d;}</style></defs><g id="a"/><g id="b"><g id="c"><g><path class="d" d="M293.48,82.94v-25.64h-25.31c0-6.82-.1-13.23,.05-19.65,.07-2.9,1.9-4.84,4.72-5.32,2.45-.42,4.98-.35,7.88-.52v19.08c13.9,0,27.44,.52,40.91-.17,9.9-.5,17.09-6.33,20.83-15.55,3.72-9.18,2.3-17.87-3.85-25.77-4.01-5.15-9.66-7.43-15.54-9.4h-42.54V19.23c-2.14,0-3.91-.03-5.68,0-11.65,.25-19.55,8.09-19.78,19.77-.12,5.91-.02,11.83-.02,18.25h-25.45v25.4l-1.14,.43c-.5-.82-1.33-1.58-1.46-2.45-.8-5.48-1.56-10.96-2.13-16.47-1.31-12.49-8.69-19.35-21.1-19.38-16.88-.04-33.76-.04-50.64,0-12.26,.03-19.74,6.86-21.07,19-.6,5.5-1.32,10.99-2.09,16.47-.14,.98-.81,1.89-1.23,2.83l-1.35-.29v-25.39h-25.54c0-5.6-.25-10.85,.05-16.08,.75-13.18-8.5-23.09-21.79-22.12-1.12,.08-2.25-.09-3.74-.16V0H33.93c-1.43,.51-2.85,1.06-4.3,1.53-10.75,3.53-18.24,15.12-16.89,26.17,1.73,14.1,11.83,23.21,26.09,23.34,11.47,.1,22.94,.03,34.41,.01,.98,0,1.96-.18,3.31-.31v-18.68c2.55,0,4.94-.57,6.82,.16,2.05,.8,5.02,2.68,5.16,4.3,.57,6.84,.24,13.75,.24,21.05h-25.28v25.51H0v38.31H4.36c25.52,0,51.04,.04,76.56-.02,6.88-.02,13.31,1.37,19.02,5.29,.9,.62,1.88,1.89,1.92,2.9,.47,10.14-1.16,19.74-7.61,28.06-1.31,1.69-2.53,2.22-4.76,2.24-10.75,.07-18.91,4.94-23.4,14.75-4.39,9.61-3.16,18.97,3.74,27.06,6.9,8.09,15.86,10.69,26.13,8.01,9.28-2.43,14.77-8.92,17.81-17.73h13.79v12.44h12.3v25.63h-25.24c0,4.38-.15,8.36,.05,12.31,.15,2.92-.71,5.05-2.87,7.12-6.42,6.15-12.48,12.68-18.98,18.74-2.91,2.71-4.07,5.52-3.84,9.45,.32,5.32,.08,10.68,.08,16.39h-12.4v12.62h12.5v19.04c8.04,0,15.64,.05,23.23-.03,1.94-.02,2.98,.42,3.53,2.52,3.88,14.88,13.36,24.31,28.18,28.26,2.07,.55,2.64,1.47,2.61,3.46-.08,5.93-.16,11.86,.08,17.78,.39,10,8,17.83,18.03,18.19,9.14,.33,18.31,.33,27.44,0,10.03-.36,17.63-8.2,18.03-18.19,.22-5.53,.26-11.09,.04-16.62-.12-2.98,.81-4.13,3.76-4.95,13.24-3.7,22.28-12.21,26.26-25.36,1.27-4.2,2.9-5.38,7.05-5.15,6.75,.36,13.54,.1,20.79,.1v-19.3h12.26v-12.61h-12.42c0-6.15-.13-11.92,.06-17.69,.09-2.8-.69-4.81-2.74-6.79-6.77-6.53-13.27-13.35-20.05-19.86-2.15-2.07-3.02-4.19-2.87-7.12,.2-4.06,.05-8.14,.05-12.59h-25.55c0-7.71,0-15.03,.01-22.35,0-.87,.18-1.74,.33-3.14h12.53v-12.4h13.46c.39,.96,.73,1.79,1.06,2.62,4.83,12.08,17.7,18.76,29.77,15.45,13.31-3.65,20.9-15.31,18.94-29.1-1.71-12.03-13.11-21.26-25.8-21.12-1.36,.02-3.18-.81-4.04-1.86-6.81-8.21-8.43-18-7.95-28.28,.05-1.01,1.02-2.28,1.92-2.9,5.71-3.92,12.15-5.31,19.02-5.29,25.52,.06,51.04,.02,76.56,.02h4.33v-38.45h-63.59Zm.33-51.01h12.18v-12.59h-12.09v-6.33c9.14,0,18.01-.29,26.86,.1,6.17,.27,10.78,5.76,10.97,11.94,.2,6.44-4.08,12.44-10.37,12.82-9.08,.55-18.21,.14-27.55,.14v-6.08ZM63.33,19.03h-12.16v12.71h12.12v6.22c-9.4,0-18.66,.43-27.86-.15-6.06-.39-10.22-6.42-10.06-12.69,.16-6.18,4.75-11.72,10.9-12,8.85-.4,17.74-.1,27.06-.1v6.01Zm-12.68,89.22H12.65v-12.18H50.66v12.18Zm38.56,89.72c-7.04,.04-12.79-5.7-12.78-12.77,0-7.07,5.76-12.78,12.82-12.72,6.99,.06,12.79,6,12.65,12.95-.14,6.84-5.86,12.5-12.69,12.54Zm-12.67-127.4h37.74v12.04h-37.74v-12.04Zm50.99,100.47c-.34,2.37-.05,4.82-.05,7.48h-12.91c-3.04-4.66-6.01-9.22-8.81-13.51,2.94-6.99,6-14.25,9.22-21.9,1.73,2.28,3.44,5.06,5.67,7.35,5.64,5.81,8.06,12.51,6.89,20.58Zm-7.8-42.31c-.14-.26-.46-1.21-1.04-1.96-9.63-12.52-22.52-18.28-38.16-18.26-5.51,0-11.02,0-16.77,0v-12.41h64.3c-2.77,10.86-5.48,21.45-8.34,32.63Zm-5.45,184.06h-12.32c0-11.66-.02-23.08,.04-34.5,0-.67,.44-1.48,.92-2,3.49-3.74,7.04-7.41,11.36-11.94v48.43Zm128.43-48.35c4.36,4.5,8.01,8.21,11.56,12.01,.54,.58,.84,1.59,.84,2.41,.05,11.18,.04,22.37,.04,34.17-3.67,0-6.86,.02-10.05-.01-.74,0-1.48-.2-2.38-.33v-48.24ZM145.66,61.84c.6-3.15,3.51-4.38,6.56-4.39,17.53-.06,35.05-.1,52.58,.01,4.44,.03,6.5,2.05,7.17,6.53,.88,5.95,1.56,11.92,2.4,18.46-24-16.22-47.52-16.26-71.7,.07,1.03-7.33,1.74-14.06,3-20.68Zm1.26,281.33l-1.07,.97c-3.3-1.98-6.91-3.59-9.83-6.03-5.27-4.39-8.34-10.33-8.39-17.21-.18-25.65-.08-51.3-.08-76.95,0-.24,.15-.47,.33-1.02h10.3c-5.98,12.21-4.03,24.92-4.43,37.86h13.17v62.37Zm-6.45-151.67v-20.54c22.67,18.76,53.37,18.86,76.1,.07v20.46h-76.1Zm63.38,13.07v20.32c-16.8-10.19-33.55-10.31-50.68,.1v-20.42h50.68Zm-6.4,95.44v12.9h-12.32v12.71h12.42v12.76h-12.39v12.71h12.36v12.92h-12.31v12.56h12.14c-.02,4.05-1.94,6.25-5.27,6.34-9,.24-18.02,.24-27.02,0-3.33-.09-5.25-2.28-5.29-6.18h12.23v-12.58h-12.45v-12.9h12.42v-12.57h-12.38v-12.77h12.35v-12.71h-12.31v-13.04h12.4v-12.62h-12.19c-.08-4.03,2.01-6.15,5.22-6.25,8.99-.27,18-.24,27-.02,3.13,.08,5.01,2.24,5.51,6.09h-12.46v12.65h12.35Zm-50.47-31.85c-1.34-13.06,2.25-23.93,12.85-32.03,9.81-7.5,23.84-8.08,35.26-1.47,10.95,6.33,16.85,19.36,14.97,33.5h-63.07Zm76.35,12.95c-.32-13.08,1.62-25.76-4.5-38.35,3.14,0,5.45-.01,7.75,0,.88,0,1.76,.09,2.85,.14,.07,1.04,.19,1.9,.19,2.77,0,24.23,.03,48.47,0,72.7-.01,10.78-4.8,18.74-14.38,23.74-1.31,.68-2.8,1.02-4.96,1.79v-62.8h13.05Zm-44.95-108.67c-24.55-.1-44.77-20.51-44.56-44.98,.21-24.43,20.35-44.45,44.73-44.47,24.51-.01,44.85,20.36,44.76,44.83-.09,24.58-20.37,44.72-44.93,44.61Zm89.45,.04c7.06-.08,12.83,5.62,12.85,12.69,.02,7.07-5.71,12.83-12.75,12.8-6.98-.03-12.82-5.94-12.73-12.9,.09-6.84,5.78-12.51,12.63-12.59Zm-25.09-102.06h37.69v12.2h-37.69v-12.2Zm1.04,106.92c-.39,.63-1.27,1.33-1.95,1.35-3.94,.13-7.89,.06-12.18,.06,0-6.3-.02-12.19,.03-18.07,0-.59,.25-1.28,.6-1.76,3.96-5.36,7.96-10.69,11.85-15.9,3.16,7.53,6.23,14.87,9.14,21.82-2.4,4.04-4.89,8.3-7.49,12.5Zm49.58-68.84c-4.7,0-9.18,.14-13.65-.02-17.38-.63-31.75,5.18-42.25,19.45-.22,.29-.56,.49-.25,.22-2.65-10.4-5.37-21.07-8.15-32.01h64.3v12.37Zm51.1-.22h-37.89v-12.21h37.89v12.21Z"/><path class="d" d="M178.49,95.88c-17.58,.04-31.92,14.54-31.76,32.11,.16,17.51,14.4,31.61,31.87,31.55,17.51-.05,31.68-14.18,31.76-31.67,.08-17.59-14.31-32.03-31.87-31.99Zm.24,51.01c-10.38,.12-19.28-8.65-19.36-19.06-.08-10.38,8.76-19.23,19.19-19.23,10.29,0,18.91,8.49,19.16,18.86,.25,10.29-8.56,19.31-18.99,19.43Z"/></g></g></g></svg>