<?xml version="1.0" encoding="utf-8"?>
<!-- Generator: Adobe Illustrator 21.0.0, SVG Export Plug-In . SVG Version: 6.00 Build 0)  -->
<svg version="1.1" id="Layer_1" xmlns="http://www.w3.org/2000/svg" xmlns:xlink="http://www.w3.org/1999/xlink" x="0px" y="0px"
	 viewBox="0 0 100 100" style="enable-background:new 0 0 100 100;" xml:space="preserve">
<style type="text/css">
	.st0{fill:#55C4F0;}
	.st1{fill:#55C4F0;stroke:#55C4F0;stroke-width:0.25;stroke-miterlimit:10;}
	.st2{fill:#A07478;}
	.st3{fill:#A2757B;}
	.st4{fill:#A07278;}
	.st5{fill:#560327;}
	.st6{fill:#510324;}
	.st7{fill:#530626;}
	.st8{fill:#570426;}
	.st9{fill:#520425;}
	.st10{fill:#560E29;}
	.st11{fill:#540727;}
	.st12{fill:#530525;}
	.st13{fill:#530625;}
	.st14{fill:#500725;}
	.st15{fill:#530827;}
	.st16{fill:#55132A;}
	.st17{fill:#741F1F;}
	.st18{fill:#7E3029;}
	.st19{fill:#55C4F0;stroke:#55C4F0;stroke-width:0.5;stroke-miterlimit:10;}
	.st20{fill:none;stroke:#55C4F0;stroke-width:1.5;stroke-linecap:round;stroke-miterlimit:10;}
	.st21{fill:none;stroke:#55C4F0;stroke-width:1.4;stroke-linecap:round;stroke-miterlimit:10;}
</style>
<g>
	<path class="st0" d="M49.8,41.4c-2.8,0-5.1,2.3-5.1,5.1c0,2.8,2.3,5.1,5.1,5.1c2.8,0,5.1-2.3,5.1-5.1c0,0,0,0,0,0
		C54.9,43.7,52.6,41.4,49.8,41.4z M49.8,50.4c-2.2,0-3.9-1.8-3.9-3.9c0-2.2,1.8-3.9,3.9-3.9c2.2,0,3.9,1.8,3.9,3.9
		C53.7,48.7,51.9,50.4,49.8,50.4z"/>
	<path class="st0" d="M77.4,49.5l-2.9-7.6c-0.1-0.2-0.3-0.4-0.6-0.4h-3.8c-0.2,0-0.5,0.2-0.6,0.4l-2.7,7.3h-9.1V35.1
		c0-0.1,0-0.1,0-0.2l-4.4-11.8c-0.1-0.2-0.3-0.4-0.6-0.4h-5.9c-0.2,0-0.5,0.2-0.6,0.4l-4.4,11.8c0,0.1,0,0.1,0,0.2v14.1h-8.7
		l-2.7-7.3c-0.1-0.2-0.3-0.4-0.6-0.4H26c-0.2,0-0.5,0.2-0.6,0.4l-2.9,7.6c0,0.1,0,0.1,0,0.2l0,0l0,0v27c0,0.3,0.3,0.6,0.6,0.6h53.7
		c0.3,0,0.6-0.3,0.6-0.6V49.8l0,0l0,0C77.4,49.7,77.4,49.6,77.4,49.5z M26.4,42.7h3l2.4,6.5h-1.4l-2-3.5c-0.2-0.3-0.5-0.4-0.8-0.2
		c-0.1,0.1-0.2,0.1-0.2,0.2l-2,3.5H24L26.4,42.7z M29.6,76.1h-3.4v-5.3c0-0.9,0.8-1.7,1.7-1.7c0.9,0,1.7,0.8,1.7,1.7L29.6,76.1z
		 M32.1,55.8v20.3h-1.3v-5.3c0-1.6-1.3-2.9-2.9-2.9S25,69.2,25,70.8v5.3h-1.3V50.4h2c0.2,0,0.4-0.1,0.5-0.3l1.7-2.9l1.7,2.9
		c0.1,0.2,0.3,0.3,0.5,0.3h2V55.8z M39.2,76.1h-3.4v-5.3c0-0.9,0.8-1.7,1.7-1.7c0.9,0,1.7,0.8,1.7,1.7V76.1z M41.8,76.1h-1.4v-5.3
		c0-1.6-1.3-2.9-2.9-2.9c-1.6,0-2.9,1.3-2.9,2.9v5.3h-1.4V56.4h8.5V76.1z M41.8,55.2h-8.5v-4.9h8.5V55.2z M47.2,23.9h5.1l4,10.6
		h-4.4l-1.6-6.9c-0.1-0.3-0.4-0.5-0.7-0.4c-0.2,0.1-0.4,0.2-0.4,0.4l-1.6,6.9h-4.4L47.2,23.9z M43,35.6h4.4L47,37h-1.7
		c-0.3,0-0.6,0.3-0.6,0.6v2.8H43L43,35.6z M53,76.1h-6.4V67c0-1.8,1.4-3.2,3.2-3.2c1.8,0,3.2,1.4,3.2,3.2V76.1z M56.6,76.1h-2.4V67
		c0-2.4-2-4.4-4.4-4.4c-2.4,0-4.4,2-4.4,4.4v9.1H43V41.5h2.4c0.3,0,0.6-0.3,0.6-0.6v-2.8h1.6c0.3,0,0.5-0.2,0.6-0.5l1.7-7.3l1.7,7.3
		c0.1,0.3,0.3,0.5,0.6,0.5h1.6v2.8c0,0.3,0.3,0.6,0.6,0.6h2.4L56.6,76.1z M56.6,40.4h-1.8v-2.8c0-0.3-0.3-0.6-0.6-0.6h-1.7l-0.3-1.3
		h4.4L56.6,40.4z M63.9,76.1h-3.4v-5.3c0-0.9,0.8-1.7,1.7-1.7c0.9,0,1.7,0.8,1.7,1.7L63.9,76.1z M66.7,76.1h-1.6v-5.3
		c0-1.6-1.3-2.9-2.9-2.9c-1.6,0-2.9,1.3-2.9,2.9v5.3h-1.6V56.4h9V76.1z M66.7,55.2h-9v-4.9h9V55.2z M70.6,42.7h3l2.4,6.5h-1.4
		l-2-3.5c-0.2-0.3-0.5-0.4-0.8-0.2c-0.1,0.1-0.2,0.1-0.2,0.2l-2,3.5h-1.4L70.6,42.7z M73.8,76.1h-3.4v-5.3c0-0.9,0.8-1.7,1.7-1.7
		c0.9,0,1.7,0.8,1.7,1.7L73.8,76.1z M76.3,76.1L76.3,76.1l-1.3,0v-5.3c0-1.6-1.3-2.9-2.9-2.9c-1.6,0-2.9,1.3-2.9,2.9v5.3h-1.3V50.4
		h2c0.2,0,0.4-0.1,0.5-0.3l1.7-2.9l1.7,2.9c0.1,0.2,0.3,0.3,0.5,0.3h2V76.1z"/>
	<path class="st0" d="M30.2,60.3h-4.6c-0.3,0-0.6,0.3-0.6,0.6v4.6c0,0.3,0.3,0.6,0.6,0.6h4.6c0.3,0,0.6-0.3,0.6-0.6v-4.6
		C30.8,60.6,30.5,60.3,30.2,60.3C30.2,60.3,30.2,60.3,30.2,60.3z M29.6,64.9h-3.4v-3.4h3.4L29.6,64.9z"/>
	<path class="st0" d="M25,52.8v4.6c0,0.3,0.3,0.6,0.6,0.6h4.6c0.3,0,0.6-0.3,0.6-0.6v-4.6c0-0.3-0.3-0.6-0.6-0.6h-4.6
		C25.3,52.2,25,52.5,25,52.8z M26.2,53.4h3.4v3.4h-3.4V53.4z"/>
	<path class="st0" d="M74.6,59.8H70c-0.3,0-0.6,0.3-0.6,0.6v4.6c0,0.3,0.3,0.6,0.6,0.6h4.6c0.3,0,0.6-0.3,0.6-0.6v-4.6
		C75.2,60,74.9,59.8,74.6,59.8z M74,64.4h-3.4V61H74V64.4z"/>
	<path class="st0" d="M69.4,52.3v4.6c0,0.3,0.3,0.6,0.6,0.6h4.6c0.3,0,0.6-0.3,0.6-0.6v-4.6c0-0.3-0.3-0.6-0.6-0.6H70
		C69.7,51.7,69.4,51.9,69.4,52.3z M70.6,52.9H74v3.4h-3.4V52.9z"/>
</g>
</svg>
