<svg xmlns="http://www.w3.org/2000/svg" viewBox="0 0 333.93 270.84"><g id="Layer_2" data-name="Layer 2"><g id="Layer_1-2" data-name="Layer 1"><path d="M162,45.49c-4.65,0-8.76.06-12.86,0-5.9-.1-8.12-3.82-5.28-9q9-16.41,18.22-32.72c2.85-5,7.47-5,10.32,0q9.21,16.31,18.22,32.71c2.83,5.16.59,8.87-5.31,9-4.1.07-8.21,0-12.82,0,0,5.28-.16,10.36.15,15.42.05.93,1.84,2.07,3.06,2.58q41.84,17.67,83.72,35.2c5.86,2.47,6.1,2.83,6.1,9.17,0,37.26,0,74.52-.07,111.78,0,2.85.91,4.15,3.47,5.18,9,3.61,17.93,7.45,27.26,11.37,2.4-4.12,4.75-8.18,7.12-12.23,3.5-6,7.61-6,11.16-.09,6.15,10.29,12.38,20.53,18.28,31,1.07,1.9,1.68,5.2.73,6.78s-4.12,2.63-6.32,2.64c-12,.08-23.95-.22-35.93-.42-6.63-.11-8.7-3.78-5.42-9.57,1.59-2.82,3.23-5.62,5-8.75-1.31-.63-2.46-1.24-3.66-1.75-6.78-2.84-13.75-5.3-20.28-8.61-4.73-2.41-8.63-1.89-13.28.1C226.22,247,198.72,258.36,171.29,270a9.77,9.77,0,0,1-8.21-.06c-28.23-11.94-56.51-23.74-84.73-35.71a9.58,9.58,0,0,0-8.42.05c-8.63,3.87-17.41,7.39-26.34,11.14,1.91,3.37,3.75,6.47,5.47,9.64,2.6,4.78.54,8.65-4.81,8.77q-18.88.43-37.79.56c-5.83,0-8.12-4-5.18-9q9.5-16.14,19.16-32.18c3.07-5.07,7.33-5,10.39.17,2.48,4.18,4.86,8.41,7.42,12.87,9.79-4.09,19.45-8,29-12.27,1-.42,1.63-2.58,1.63-3.94.11-16.63.08-33.26.08-49.89,0-21,.08-42-.08-63,0-4.29,1.6-6.57,5.49-8.18,28.08-11.65,56.06-23.52,84.15-35.14,2.83-1.18,3.72-2.59,3.54-5.51C161.8,54.17,162,50.06,162,45.49ZM79.66,218.59a19.62,19.62,0,0,0,1.92-.55q39.09-16.39,78.13-32.91a4.71,4.71,0,0,0,2.18-3.52c.17-10.25,0-20.49.16-30.74,0-2.61-.7-3.9-3.22-4.94-22.77-9.42-45.48-19-68.21-28.54l-11-4.57ZM254.82,113.13a11.24,11.24,0,0,0-1.62.38Q213.9,130,174.66,146.57a4.66,4.66,0,0,0-2.1,3.57c-.17,10.12,0,20.25-.17,30.38,0,2.8.76,4.14,3.37,5.22,24.51,10.17,49,20.49,73.43,30.75,1.78.74,3.6,1.4,5.63,2.2Zm-8,113.72-74.11-31.08v62.17ZM172.69,73.67v62.2l74.09-31.11ZM161.77,257.93V195.79l-74,31.06Zm-.09-122.14v-62l-73.92,31Zm16-101c-3.55-6.35-6.83-12.22-10.48-18.73-3.65,6.57-6.93,12.45-10.43,18.73ZM36,253.38,25.51,235.12,14.67,253.38Zm262.5-.16h21.19l-10.79-18.06Z"/></g></g></svg>