<?xml version="1.0" encoding="UTF-8"?><svg xmlns="http://www.w3.org/2000/svg" viewBox="0 0 322.43 383.25"><g id="a"/><g id="b"><g id="c"><path d="M248.92,0c6.34,1.74,12.69,3.42,19.01,5.25,1.65,.48,3.2,1.37,4.75,2.16,21.36,10.87,44.43,39.55,48.4,61.36,4.19,23.03-1.23,43.84-17.91,60.62-55.4,55.74-111.08,111.2-166.63,166.79-7.46,7.46-16.73,10.93-26.85,12.9-21.15,4.12-42.29,8.28-63.39,12.66-20.17,4.19-40.16-8.35-45.2-28.46-2.11-8.41-.83-16.55,.92-24.77,4.24-19.86,8.36-39.74,12.54-59.6,1.87-8.88,5.87-16.62,12.31-23.08,55.16-55.27,110.33-110.54,165.47-165.84,10.77-10.8,23.68-17.19,38.74-19.34,.72-.1,1.41-.42,2.12-.64h15.72ZM38.03,284.35c1.15,0,1.89,.1,2.6-.01,22.12-3.7,44.24-7.39,66.34-11.2,1.33-.23,2.73-1.18,3.71-2.17,54.96-55.13,109.91-110.28,164.77-165.5,13.31-13.4,13.18-30.63-.03-44.22-4.61-4.74-9.31-9.39-14.02-14.03-12.01-11.81-31.1-11.87-43.07,.11-54.94,54.97-109.82,110.01-164.69,165.06-1,1-1.97,2.37-2.23,3.71-4.5,22.6-8.89,45.23-13.39,68.26Z"/><path d="M160.24,346.52c46.89,0,93.78-.02,140.66,.01,12.05,0,20.68,9.57,19.21,21.12-1.07,8.4-8.51,14.81-18.05,15.53-1.12,.08-2.24,.07-3.37,.07-92.78,0-185.56,0-278.34,0-13.99,0-22.71-10.99-19.23-24.12,1.98-7.45,8.14-12.36,16.2-12.55,7.48-.17,14.96-.06,22.45-.06,40.15,0,80.31,0,120.46,0Z"/></g></g></svg>