<svg xmlns="http://www.w3.org/2000/svg" viewBox="0 0 401.25 408.85"><g id="Layer_2" data-name="Layer 2"><g id="Layer_1-2" data-name="Layer 1"><path d="M276.3,0c6.09,2.52,10.77,6.25,11.38,13.42a14.6,14.6,0,0,1-13.65,16c-1.69.13-3.4,0-4.5,0-1.16,3.89-2.24,7.22-3.11,10.61a4.86,4.86,0,0,0,.4,2.91c3.75,8.4,1.3,16.14-6.75,20.17-2,1-2.66,2.15-2.57,4.25.14,3.29,0,6.6,0,10.52,3.8,0,7.22.2,10.61,0,4.62-.34,7.94,1.25,10.19,5.38,1.32,2.44,3.07,4.64,4.83,7.26,6.85-4.67,13.52-9.24,20.2-13.79,10.79-7.35,19.45-5.72,26.84,5,2.46,3.59,4.94,7.18,7.56,11l11.8-8c-.77-2.36-1.83-4.54-2.15-6.81-.78-5.46,1.68-9.57,6.2-12.44,6-3.82,11.42-10.07,19.71-6a15.85,15.85,0,0,1,5.55,5c6.67,9.45,13.18,19,19.64,28.62,4.67,7,3.29,13.79-3.6,18.7-1.63,1.16-3.29,2.26-4.94,3.38-8.49,5.78-13,5.43-20.65-1.8l-5.76,4c-2,1.34-3.91,2.7-6.11,4.22,3.68,5.39,7.21,10.52,10.69,15.67,6.75,10,5.07,18.85-4.85,25.69-7.1,4.9-14.23,9.76-21.53,14.77,2.87,4.29,5.48,8.46,8.38,12.41,2.52,3.43,2.71,6.59.52,10.3-3.79,6.4-7.36,12.94-10.76,19.56a5.26,5.26,0,0,0,.17,4.47c8.49,12.88,17.13,25.66,25.81,38.41a9.72,9.72,0,0,0,3.21,2.83c11.28,6.35,16.84,18.28,13.84,29.9-3.22,12.47-13.3,20.42-26.54,20.61-21.83.31-43.65.57-65.48.58-3.74,0-5.65,1.25-7.3,4.46-3.82,7.44-8.27,14.57-12,22.06-2.38,4.76-5.47,7.35-10.93,6.5a8.31,8.31,0,0,0-2,.07,5.63,5.63,0,0,0-1.17.54c0,7.59.09,15.4,0,23.21a30.39,30.39,0,0,1-1.08,8.64c-1.92,6-7.41,9.68-14.08,9.8-6.12.11-12.25.13-18.37,0-2.23-.06-3.16.69-4,2.78a21.76,21.76,0,0,1-40.71-.1c-.86-2.18-1.93-2.72-4.07-2.67-5.72.13-11.45.08-17.17,0-10-.08-16.06-6-16.26-16.16-.16-8.51,0-17,0-25.84a13.61,13.61,0,0,0-3.21-.32c-5.62.8-8.6-2-11.21-6.76Q88.77,272.72,49.82,202.68c-2.45-4.4-2.72-8,.46-12s5.85-8.49,8.85-12.91c-7.4-5.07-14.54-9.93-21.65-14.83-9.88-6.82-11.53-15.72-4.75-25.72,3.42-5.06,6.89-10.09,10.64-15.58l-11.28-7.85c-3.11,1.82-5.73,4.1-8.75,5C16.1,120.79,1,111.05.11,103.59A16,16,0,0,1,2.05,93.8c6.46-10.23,13.42-20.14,20.39-30,4.21-6,11-7.12,17.24-3.27,1.93,1.18,3.77,2.5,5.63,3.78,8.84,6,10.17,10.55,5.83,20.46L57,88.66l6.11,4.12,7.6-11c7.37-10.73,16-12.32,26.86-4.94,6.69,4.57,13.37,9.16,20.46,14,2-3,4-5.76,5.83-8.67a8.74,8.74,0,0,1,8.3-4.44c3.56.09,7.12,0,11.14,0,0-4.25.13-8.07-.1-11.87,0-.85-1.2-1.89-2.1-2.37C132.73,58.92,130.2,51.58,134,43a5.41,5.41,0,0,0,.22-3.26c-.39-1.65-1.35-3.17-1.73-4.83a33.84,33.84,0,0,1-.35-5.16c-1.21-.06-2.48-.16-3.75-.2-7.75-.22-13.76-4.9-15.05-11.76-1.44-7.58,2.29-14,9.86-17A9.36,9.36,0,0,0,124.54,0Zm-4,317c-3,0-5.31,0-7.65,0-30.08.24-60.17,1.1-90.23.58-37-.64-63-37.57-51.49-72.69,2.59-7.91,7.74-15,11.92-22.37,18.86-33.16,37.68-66.34,56.74-99.39,18-31.18,58.25-32.42,78.33-2.6q29.19,43.35,58.41,86.68c.79,1.17,1.63,2.31,2.66,3.76,2.47-4.46,4.58-8.61,7-12.55,1.29-2.05.95-3.47-.31-5.31-7.5-11-14.89-22-22.31-33.08-1-1.54-2.15-3-3.07-4.66-2-3.54-1.28-7.1,1.78-9.14s6.38-1.37,8.87,1.56a41.22,41.22,0,0,1,2.55,3.57c3.52,5.12,7,10.26,10.66,15.54,7.13-4.87,13.95-9.48,20.71-14.16,3.93-2.73,4.2-4.5,1.42-8.61-3.87-5.73-7.81-11.42-11.71-17.13q-13.51-19.76-27-39.53c-1.79-2.63-4-4.38-7-2.48-7.46,4.81-14.72,10-22.15,15,.93,1.39,1.66,2.5,2.4,3.6,3.2,4.73,6.54,9.39,9.58,14.22a6.14,6.14,0,0,1-1.45,8.54c-2.88,2.14-6.27,1.71-8.89-1.21a26.41,26.41,0,0,1-2.11-2.89c-6.68-9.93-13.27-19.93-20.11-29.74A6.68,6.68,0,0,0,265.22,90q-64.49-.32-129-.21a6.64,6.64,0,0,0-4.72,2.56Q96.7,143.48,62.05,194.71a4,4,0,0,0-.18,5q37.48,67.68,74.91,135.37a5.76,5.76,0,0,0,4.17,2.58q58.7.24,117.38.12a4.31,4.31,0,0,0,3.26-1.42C265.2,330.17,268.57,323.88,272.34,317ZM156.49,208.86c13-4.45,25.18-4.81,37.29-.83,12.3,4,22.6,11.19,29.28,22.23,16.65,27.5,11.72,52.48-10.61,75.16,1.13.07,1.77.15,2.41.15,20.49-.18,41-.43,61.47-.47,2.58,0,3.43-1.33,4.42-3.13q21-38.06,42.12-76c1.33-2.38,1.11-3.9-.34-6q-22.06-32.5-44-65.13c-.62-.93-1.38-1.76-2.27-2.88-6.12,22.39-19.93,36.14-43.06,37-23.34.87-38.14-12-45.84-34.21ZM132.2,260.94c-.52,23.95,19.05,44.36,43.07,44.89a44.3,44.3,0,0,0,45.44-43.7c.53-23.95-19.06-44.36-43.06-44.88A44.32,44.32,0,0,0,132.2,260.94ZM110.36,100.1c-7.38-5-14.57-10-21.87-14.88-2.67-1.76-5.08-.91-6.86,1.69L41.78,145.19c-1.82,2.66-1.47,5.08,1.18,6.92C50,157,57.17,161.86,64.61,167Zm43.6,255h47.65a35.13,35.13,0,0,1,4,.15c3.42.37,5.35,2.33,5.4,5.76s-1.91,5.4-5.29,5.87a29.24,29.24,0,0,1-4,.19h-48c0,2.77,0,4.89,0,7,0,5.62.5,6.08,6.19,6.08H217c8,0,16,0,24,0,2.39,0,4.45-.5,4.49-3.3.1-8.88,0-17.76,0-26.79H154ZM264.6,144.64c.5-17.87-14.15-33-32.43-33.6-17.9-.54-32.9,13.93-33.61,32.41-.69,17.94,14.26,33.43,32.61,33.8C249.11,177.62,264.07,163,264.6,144.64Zm69.57,159.78c-7.76-21.64-3-32.94,17.31-41.42L332,234.1l-38.89,70.32ZM155.52,77.19h89.8V65h-89.8Zm44.7-59.62h69.89c1.19,0,2.54.24,3.53-.23a3.64,3.64,0,0,0,1.94-2.56,3.64,3.64,0,0,0-1.94-2.55c-1-.47-2.34-.23-3.53-.24H130.73c-1.19,0-2.54-.23-3.53.24a3.64,3.64,0,0,0-1.94,2.55,3.6,3.6,0,0,0,1.94,2.55c1,.48,2.34.24,3.53.24ZM200,35.14c17.44,0,34.88.06,52.31-.12,1.41,0,3.81-1.43,4-2.52.5-2.72-1.87-3-4-2.95H150.1a11.62,11.62,0,0,0-3.93.29,3,3,0,0,0-1.73,2.29,3.78,3.78,0,0,0,1.74,2.69c1,.51,2.33.3,3.52.3Zm.4,17.57c17.31,0,34.61.06,51.91-.12,1.41,0,3.81-1.43,4-2.52.5-2.72-1.87-3-4-3H150.1c-1.19,0-2.52-.24-3.55.2s-2.16,1.63-2.09,2.38a4.27,4.27,0,0,0,2.11,2.79c1,.5,2.34.21,3.53.21ZM371.65,289.6a14.68,14.68,0,1,0-14.8,14.63A14.74,14.74,0,0,0,371.65,289.6ZM11.41,101.05l9.25,6.33,21.18-31-9.31-6.26C25.43,80.53,18.55,90.61,11.41,101.05ZM359,76.42l21.19,31,9.24-6.36-21.2-30.95ZM38,103.27l12.18,8.42,6.08-9L44,94.41ZM356.67,94.5l-12.13,8.19,6.15,9,12.12-8.48c-1.57-2.3-2.89-4.27-4.24-6.21C358.05,96.27,357.47,95.56,356.67,94.5Zm-165,297.7c4.52,6.26,12.5,6.1,15.46,0Z"/><path d="M149.79,261.59a26.67,26.67,0,1,1,26.62,26.67A26.83,26.83,0,0,1,149.79,261.59Zm26.56,14.69a14.75,14.75,0,1,0-14.57-14.85A14.73,14.73,0,0,0,176.35,276.28Z"/><path d="M253.44,144.06a21.87,21.87,0,1,1-21.86-21.85A22,22,0,0,1,253.44,144.06Zm-21.87-9.87a10,10,0,1,0,9.9,9.95A10.15,10.15,0,0,0,231.57,134.19Z"/><path d="M356.92,296.21a6.73,6.73,0,1,1,6.67-6.48A6.67,6.67,0,0,1,356.92,296.21Z"/></g></g></svg>