<?xml version="1.0" encoding="utf-8"?>
<!-- Generator: Adobe Illustrator 21.0.0, SVG Export Plug-In . SVG Version: 6.00 Build 0)  -->
<svg version="1.1" id="Layer_1" xmlns="http://www.w3.org/2000/svg" xmlns:xlink="http://www.w3.org/1999/xlink" x="0px" y="0px"
	 viewBox="0 0 100 100" style="enable-background:new 0 0 100 100;" xml:space="preserve">
<style type="text/css">
	.st0{fill:#003243;}
	.st1{fill:#51C4F1;}
	.st2{fill:#0096AC;}
	.st3{fill:#E6BB42;}
	.st4{fill:none;stroke:#51C4F1;stroke-width:1.659;stroke-miterlimit:10;}
	.st5{fill:none;stroke:#51C4F1;stroke-width:1.659;stroke-linecap:round;stroke-miterlimit:10;}
	.st6{fill:none;stroke:#51C4F1;stroke-width:1.6589;stroke-miterlimit:10;}
</style>
<path class="st6" d="M62.8,41.1c-0.1-0.6-0.2-1.2-0.3-1.8c-0.1-0.6-0.2-1.2-0.3-1.9c-0.3-1.2-0.6-2.4-1-3.6c-1.1-3.2-2.6-6.3-4.8-9
	c-1.9-2.5-4.3-4.6-7.1-6.1c-2.7-1.4-5.6-2.2-8.7-2.2c-11.3,0-20.7,10.7-22,24.5c-0.1,1.1-0.2,2.3-0.2,3.4s0.1,2.3,0.2,3.4v23.2
	c0,0,44.3,5.9,44.3,5.9c0,0,0-1,0-1c0-1.5,0-2.9,0-4.4c0-2.2,0-4.4,0-6.7c0-2.5,0-5.1,0-7.6c0-2.5,0-4.9,0-7.4c0-1.9,0-3.9,0-5.8
	c0-0.6,0-1.3,0-1.9C62.9,41.9,62.9,41.5,62.8,41.1z"/>
<path class="st6" d="M76,73.5c0,0.4,0-0.6,0-0.6c0-0.9,0,1.1,0-0.3c0-1.9,0-3.9,0-5.8c0-2.5,0-5,0-7.4c0-2.5,0-5,0-7.5
	c0-2,0-4,0-6.1c0-0.7,0-1.3,0-2c0-1-0.2-1.9-0.4-2.9c-0.1-0.6-0.2-1.2-0.4-1.9c-0.3-1.2-0.7-2.5-1.2-3.6c-1.3-3.4-3.2-6.5-5.6-9.2
	c-2.3-2.6-5-4.9-8.1-6.5c-2.8-1.5-5.9-2.4-9.1-2.4c-0.8,0-5.3-0.1-6.1,0"/>
<line class="st6" x1="33.8" y1="18" x2="18.5" y2="43.2"/>
<line class="st6" x1="41.3" y1="16.6" x2="18.7" y2="53"/>
<line class="st6" x1="46.3" y1="17.5" x2="22" y2="56.6"/>
<line class="st6" x1="51.5" y1="20.1" x2="25.3" y2="61"/>
<line class="st6" x1="56.1" y1="24.2" x2="29" y2="65.7"/>
<line class="st6" x1="59.9" y1="31.3" x2="32.8" y2="70.6"/>
<line class="st6" x1="62.5" y1="39.2" x2="38.5" y2="73.9"/>
<line class="st6" x1="62.9" y1="51.3" x2="46.6" y2="74.9"/>
<line class="st6" x1="39.1" y1="16.6" x2="62.9" y2="45"/>
<line class="st6" x1="31.9" y1="19.3" x2="60.9" y2="54.2"/>
<line class="st6" x1="27.4" y1="22.1" x2="56.9" y2="59.9"/>
<line class="st6" x1="23.6" y1="27.5" x2="53.2" y2="65.3"/>
<line class="st6" x1="20" y1="34.8" x2="48.8" y2="71.7"/>
<line class="st6" x1="18.5" y1="42.3" x2="43.6" y2="74.5"/>
<line class="st6" x1="18.5" y1="52.3" x2="34.9" y2="73.3"/>
<line class="st6" x1="51.5" y1="20.1" x2="65.7" y2="23.3"/>
<line class="st6" x1="56.4" y1="25.2" x2="70.2" y2="28.2"/>
<line class="st6" x1="59.4" y1="30.1" x2="73.3" y2="33.1"/>
<line class="st6" x1="60.7" y1="33.3" x2="74.5" y2="36.3"/>
<line class="st6" x1="61.7" y1="36.4" x2="75.5" y2="39.5"/>
<line class="st6" x1="62.4" y1="41.4" x2="76.4" y2="43.2"/>
<line class="st6" x1="62.7" y1="45" x2="76.4" y2="46.6"/>
<line class="st6" x1="62.9" y1="49.9" x2="76.7" y2="50.4"/>
<line class="st6" x1="62.7" y1="53.6" x2="76.5" y2="53.6"/>
<line class="st6" x1="62.7" y1="58.3" x2="76.5" y2="57.9"/>
<line class="st6" x1="62.8" y1="62.8" x2="76.4" y2="60.6"/>
<line class="st6" x1="62.9" y1="66.4" x2="76.5" y2="64.1"/>
<line class="st6" x1="62.8" y1="71" x2="76.3" y2="67.9"/>
<line class="st6" x1="62.7" y1="77.1" x2="76.2" y2="73.5"/>
<path class="st6" d="M18.5,67l-2.3-0.3c-0.4-0.1-0.9,0-1.3,0.1l-7.4,2.4c-0.2,0.1-0.2,0.4,0,0.4l75.3,10.6c0.5,0.1,0.9,0,1.4-0.1
	l7.4-2.7c0.2-0.1,0.2-0.3,0-0.4L74,74.2"/>
<line class="st5" x1="10.3" y1="72.7" x2="10.3" y2="78.7"/>
<line class="st5" x1="17.4" y1="73.9" x2="17.4" y2="79.3"/>
<line class="st5" x1="25.3" y1="75.3" x2="25.3" y2="81.1"/>
<line class="st5" x1="32.8" y1="76.1" x2="32.8" y2="81.6"/>
<line class="st5" x1="39.7" y1="77.4" x2="39.7" y2="82.7"/>
<line class="st5" x1="47.8" y1="78.4" x2="47.8" y2="84.2"/>
<line class="st5" x1="54.7" y1="79.9" x2="54.7" y2="85.1"/>
<line class="st5" x1="62.5" y1="81.3" x2="62.5" y2="85.6"/>
<line class="st5" x1="70.2" y1="81.8" x2="70.2" y2="86.7"/>
<line class="st5" x1="82.5" y1="83.6" x2="82.5" y2="88.2"/>
<line class="st5" x1="91.8" y1="77.6" x2="91.8" y2="85.6"/>
<polyline class="st5" points="7.4,69.6 7.4,72.3 82.5,83.6 91.8,80.2 "/>
</svg>
