<?xml version="1.0" encoding="utf-8"?>
<!-- Generator: Adobe Illustrator 21.0.0, SVG Export Plug-In . SVG Version: 6.00 Build 0)  -->
<svg version="1.1" id="Layer_1" xmlns="http://www.w3.org/2000/svg" xmlns:xlink="http://www.w3.org/1999/xlink" x="0px" y="0px"
	 viewBox="0 0 100 100" style="enable-background:new 0 0 100 100;" xml:space="preserve">
<style type="text/css">
	.st0{fill:#55C4F0;}
	.st1{fill:#55C4F0;stroke:#55C4F0;stroke-width:0.25;stroke-miterlimit:10;}
	.st2{fill:#A07478;}
	.st3{fill:#A2757B;}
	.st4{fill:#A07278;}
	.st5{fill:#560327;}
	.st6{fill:#510324;}
	.st7{fill:#530626;}
	.st8{fill:#570426;}
	.st9{fill:#520425;}
	.st10{fill:#560E29;}
	.st11{fill:#540727;}
	.st12{fill:#530525;}
	.st13{fill:#530625;}
	.st14{fill:#500725;}
	.st15{fill:#530827;}
	.st16{fill:#55132A;}
	.st17{fill:#741F1F;}
	.st18{fill:#7E3029;}
	.st19{fill:#55C4F0;stroke:#55C4F0;stroke-width:0.5;stroke-miterlimit:10;}
	.st20{fill:none;stroke:#55C4F0;stroke-width:1.5;stroke-linecap:round;stroke-miterlimit:10;}
	.st21{fill:none;stroke:#55C4F0;stroke-width:1.4;stroke-linecap:round;stroke-miterlimit:10;}
</style>
<g>
	<path class="st21" d="M38.7,30.7h12.4v5H27.9c-0.2,0-0.3-0.3-0.1-0.4L38.7,30.7z"/>
	<polyline class="st21" points="33.3,32.9 33.3,29.3 38.8,29.3 38.8,30.7 	"/>
	<polyline class="st21" points="37.6,29.3 37.6,27.8 41.5,27.8 	"/>
	<polyline class="st21" points="41.5,30.7 41.5,25.6 44.5,22.6 47.7,25.2 47.7,30.7 	"/>
	<line class="st21" x1="51.1" y1="31.5" x2="57.2" y2="36.7"/>
	<line class="st21" x1="51.1" y1="35.6" x2="51.1" y2="40.1"/>
	<path class="st21" d="M29.5,35.6l-2.8,39.8c0,0,23,4.6,36.5,0L60,36.7h-8.9"/>
	<line class="st21" x1="29.6" y1="40.1" x2="60.3" y2="40.1"/>
	<line class="st21" x1="28.3" y1="52.2" x2="60.9" y2="52.2"/>
	<line class="st21" x1="27.4" y1="65.6" x2="62.4" y2="65.6"/>
	<line class="st21" x1="37.6" y1="35.6" x2="37.6" y2="40.1"/>
	<line class="st21" x1="54.2" y1="37.2" x2="54.2" y2="40.1"/>
	<line class="st21" x1="57.2" y1="37.2" x2="57.2" y2="40.1"/>
	<path class="st21" d="M41.5,25.6c0.3,0.1,5.9,0,5.9,0"/>
	<line class="st21" x1="41.8" y1="28.5" x2="47.3" y2="28.5"/>
	<path class="st21" d="M40.9,35.6v2.5h3.6c0,0-0.1-2.5,0-2.5"/>
	<line class="st21" x1="28.9" y1="43.7" x2="32.8" y2="43.7"/>
	<line class="st21" x1="31.9" y1="48.4" x2="35.7" y2="48.4"/>
	<rect x="49.1" y="44.9" class="st21" width="4.1" height="5.2"/>
	<line class="st21" x1="28.3" y1="56.2" x2="35.7" y2="56.2"/>
	<line class="st21" x1="27.6" y1="61.5" x2="31.7" y2="61.5"/>
	<line class="st21" x1="30.5" y1="69.5" x2="34.2" y2="69.5"/>
	<line class="st21" x1="38" y1="72.9" x2="41.8" y2="72.9"/>
	<polyline class="st21" points="61.4,53.7 74.9,53.7 83.9,61.4 68.9,61.9 	"/>
	<polyline class="st21" points="62,58.3 64.9,58.3 75.4,67.8 67.3,67.8 62.1,62.9 	"/>
	<line class="st21" x1="80.9" y1="61.5" x2="80.9" y2="71.7"/>
	<line class="st21" x1="66.7" y1="67.3" x2="66.7" y2="71.7"/>
	<line class="st21" x1="73.9" y1="67.8" x2="73.9" y2="71.9"/>
	<line class="st21" x1="63.2" y1="72.5" x2="87.1" y2="72.5"/>
	<line class="st21" x1="12.9" y1="71.7" x2="26.9" y2="71.7"/>
</g>
</svg>
