<?xml version="1.0" encoding="utf-8"?>
<!-- Generator: Adobe Illustrator 21.0.0, SVG Export Plug-In . SVG Version: 6.00 Build 0)  -->
<svg version="1.1" id="Layer_1" xmlns="http://www.w3.org/2000/svg" xmlns:xlink="http://www.w3.org/1999/xlink" x="0px" y="0px"
	 viewBox="0 0 100 100" style="enable-background:new 0 0 100 100;" xml:space="preserve">
<style type="text/css">
	.st0{fill:none;stroke:#55C4F0;stroke-width:1.164;stroke-linecap:round;stroke-miterlimit:10;}
</style>
<path class="st0" d="M42.6,52.5c0,0,0.6-4.1,2-6.1c1.4-2,3.5-5.6,14.1-9.9V27c0,0,0.9-1.3,1.8,0v18.6h-3c-0.5,0-0.9-0.4-0.9-0.9
	v-4.1c0-0.3-0.3-0.5-0.5-0.4c-2,0.8-8.7,4-10.9,10.2"/>
<path class="st0" d="M60.5,77.7V45.6"/>
<path class="st0" d="M45.2,45.6v32.1"/>
<path class="st0" d="M60.5,35.8l0.8-0.3c0.2-0.1,0.4,0,0.4,0.2c0.3,1.2,1.1,5.2-0.1,8.4"/>
<path class="st0" d="M60.5,43.5c0,0,1.7,0.5,1.6,1.7c0,1.2-0.1,1.6-0.6,1.7l-1.1-0.3"/>
<line class="st0" x1="58.7" y1="36.5" x2="58.7" y2="45.6"/>
<line class="st0" x1="55.2" y1="72.7" x2="43.7" y2="72.7"/>
<line class="st0" x1="57.8" y1="75.7" x2="43.7" y2="75.7"/>
<path class="st0" d="M78.7,77.9V50c0-0.4-0.2-0.8-0.5-1.1l-4.3-4.1c-0.2-0.2-0.4-0.5-0.4-0.9l0-2.4c0-0.3-0.3-0.5-0.6-0.3l-4.2,2.3
	c-0.4,0.2-0.6,0.6-0.6,1v32.2c0,0.1,0,1.1,0,1.2"/>
<line class="st0" x1="68.2" y1="46.2" x2="73.4" y2="46.2"/>
<line class="st0" x1="68.2" y1="49.5" x2="76.1" y2="49.5"/>
<line class="st0" x1="68.2" y1="52.9" x2="75.1" y2="52.9"/>
<line class="st0" x1="68.2" y1="56.4" x2="78.7" y2="56.4"/>
<line class="st0" x1="68.2" y1="59.8" x2="78.7" y2="59.8"/>
<line class="st0" x1="68.2" y1="63.2" x2="78.7" y2="63.2"/>
<line class="st0" x1="68.2" y1="66.7" x2="78.7" y2="66.7"/>
<line class="st0" x1="68.2" y1="70.3" x2="78.7" y2="70.3"/>
<line class="st0" x1="68.2" y1="73.6" x2="78.7" y2="73.6"/>
<line class="st0" x1="72.7" y1="46.2" x2="72.7" y2="49.5"/>
<line class="st0" x1="73.4" y1="53" x2="73.4" y2="56.4"/>
<line class="st0" x1="73.4" y1="59.8" x2="73.4" y2="63.2"/>
<line class="st0" x1="73.7" y1="66.7" x2="73.7" y2="70.3"/>
<line class="st0" x1="73.7" y1="73.8" x2="73.7" y2="76.3"/>
<path class="st0" d="M45.3,63.5c0,0,4.9-6.3,15.3-7.1"/>
<path class="st0" d="M45.2,67.5c0,0,4.4-7.2,15.4-8"/>
<path class="st0" d="M24.7,77.8V53.4c0-0.6,0.5-1.1,1.1-1.1h0.7c0.6,0,1.1-0.5,1.1-1.1v-3.7c0-0.6,0.5-1.1,1.1-1.1H35
	c0.6,0,1.1,0.5,1.1,1.1v3.6c0,0.6,0.5,1.1,1.1,1.1h0.5c0.6,0,1.1,0.5,1.1,1.1v24.9"/>
<path class="st0" d="M29,77.8V66.5c0-0.5,0.4-0.8,0.8-0.8h3.4c0.5,0,0.8,0.4,0.8,0.8v11.3"/>
<line class="st0" x1="27.1" y1="56.7" x2="36" y2="56.7"/>
<line class="st0" x1="7" y1="78.2" x2="93.4" y2="78.2"/>
</svg>
