<svg id="Layer_1" data-name="Layer 1" xmlns="http://www.w3.org/2000/svg" viewBox="0 0 100 100"><defs><style>.cls-1{fill:none;stroke:#55c4f0;stroke-linecap:round;stroke-miterlimit:10;stroke-width:1.16px;}</style></defs><title>Hyderabad</title><line class="cls-1" x1="57.67" y1="77.66" x2="84.89" y2="77.66"/><line class="cls-1" x1="15.11" y1="77.66" x2="42.26" y2="77.66"/><path class="cls-1" d="M29.28,25.48h0s.46,1.62.46,1.82v.82h-.48V30H30v5.24H28.7v1.45h0a12.27,12.27,0,0,1,.55,1.62v1H28.7v1.85h.85v8.52H28v1.38h0s.65.28.65.57v1.14H28V54.6h0s.65.28.65.57V56.3H28V58.5h.11c.7,0,1,.76,1.06.88V77.66h6.21V59.33c0-.1.38-1,1.17-1V56.3H36V55.16c0-.22.38-.43.55-.52V52.78H36V51.64c0-.22.38-.43.55-.52V49.81H35.09V41.17h1V39.32H35.5v-1A9.9,9.9,0,0,1,36,36.74V35.28H34.76V30h.72V28.12H35V27.3a17.46,17.46,0,0,1,.46-1.82v-.84h-.85V22.06a2.61,2.61,0,0,0-.78-3.52l-.12-.07c-.41-.25-1.25-.78-1.25-1.39V14.64h-.23v2.44c0,.62-.89,1.17-1.27,1.4l-.1.07a2.6,2.6,0,0,0-.76,3.51v2.59h-.86v.83"/><path class="cls-1" d="M64.69,25.48h0s.46,1.62.46,1.82v.82h-.48V30h.72v5.24H64.12v1.45h0a12.27,12.27,0,0,1,.55,1.62v1h-.56v1.85H65v8.52H63.46v1.38h0s.65.28.65.57v1.14h-.66V54.6h0s.65.28.65.57V56.3h-.66V58.5h.11c.7,0,1,.76,1.06.88V77.66h6.21V59.33c0-.1.38-1,1.17-1V56.3h-.55V55.16c0-.22.38-.43.55-.52V52.78h-.55V51.64c0-.22.38-.43.55-.52V49.81H70.51V41.17h1V39.32h-.54v-1a9.9,9.9,0,0,1,.54-1.61V35.28H70.18V30h.72V28.12h-.46V27.3a17.46,17.46,0,0,1,.46-1.82v-.84H70V22.06a2.61,2.61,0,0,0-.78-3.52l-.12-.07c-.41-.25-1.25-.78-1.25-1.39V14.64h-.23v2.44c0,.62-.89,1.17-1.27,1.4l-.1.07a2.6,2.6,0,0,0-.76,3.51v2.59h-.86v.83"/><path class="cls-1" d="M43.71,43.48V38.27h.59V36.7h-.37V36c0-.16.36-.32.37-.33V35h-.7V31.74A2.13,2.13,0,0,0,43,28.87l-.1-.06c-.33-.21-1-.64-1-1.13v-2h-.19v2c0,.5-.73,1-1,1.14l-.08.05a2.12,2.12,0,0,0-.62,2.87V35h-.7v.69h0s.38.16.38.33v.67h-.39v1.57h.59v5.21"/><path class="cls-1" d="M61,43.48V38.27h.59V36.7h-.37V36c0-.16.36-.32.37-.33V35h-.7V31.74a2.13,2.13,0,0,0-.64-2.88l-.1-.06c-.33-.21-1-.64-1-1.13v-2h-.19v2c0,.5-.73,1-1,1.14l-.08.05a2.12,2.12,0,0,0-.62,2.87V35h-.7v.69h0s.38.16.38.33v.67H56.5v1.57h.59v5.21"/><path class="cls-1" d="M64.49,43.86h-29m.33,33.8h6.49V69.85c0-3.75,3.76-5.26,5.36-5.91l.37-.15a13.79,13.79,0,0,0,1.89-1l.05,0,.05,0a13.8,13.8,0,0,0,1.89,1l.37.15c1.6.64,5.36,2.15,5.36,5.91v7.81h6.49M39.7,75.09H38.05v-2c0-.32.82-.63.82-.63s.82.31.82.63Zm0-5.3H38.05v-2c0-.32.82-.63.82-.63s.82.31.82.63Zm0-5H38.05V63.54c0-.32.82-.63.82-.63s.82.31.82.63Zm0-4.22H38.05V59.32c0-.32.82-.63.82-.63s.82.31.82.63ZM43.78,57H41.56V54.69c0-.57,1.11-1.12,1.11-1.12s1.11.55,1.11,1.12Zm3.66,0H45.23V54.69c0-.57,1.11-1.12,1.11-1.12s1.11.56,1.11,1.12Zm3.66,0H48.89V54.69c0-.57,1.11-1.12,1.11-1.12s1.11.55,1.11,1.12Zm3.66,0H52.55V54.69c0-.57,1.11-1.12,1.11-1.12s1.11.55,1.11,1.12Zm3.66,0H56.22V54.69c0-.57,1.11-1.12,1.11-1.12s1.11.55,1.11,1.12Zm3.51,18.13H60.29v-2c0-.32.82-.63.82-.63s.82.31.82.63Zm0-5.3H60.29v-2c0-.32.82-.63.82-.63s.82.31.82.63Zm0-5H60.29V63.54c0-.32.82-.63.82-.63s.82.31.82.63Zm0-4.22H60.29V59.32c0-.32.82-.63.82-.63s.82.31.82.63Z"/><line class="cls-1" x1="35.07" y1="46.65" x2="64.87" y2="46.65"/></svg>