<?xml version="1.0" encoding="utf-8"?>
<!-- Generator: Adobe Illustrator 21.0.0, SVG Export Plug-In . SVG Version: 6.00 Build 0)  -->
<svg version="1.1" id="Layer_1" xmlns="http://www.w3.org/2000/svg" xmlns:xlink="http://www.w3.org/1999/xlink" x="0px" y="0px"
	 viewBox="0 0 100 100" style="enable-background:new 0 0 100 100;" xml:space="preserve">
<style type="text/css">
	.st0{fill:#55C4F0;}
	.st1{fill:#55C4F0;stroke:#55C4F0;stroke-width:0.25;stroke-miterlimit:10;}
	.st2{fill:#A07478;}
	.st3{fill:#A2757B;}
	.st4{fill:#A07278;}
	.st5{fill:#560327;}
	.st6{fill:#510324;}
	.st7{fill:#530626;}
	.st8{fill:#570426;}
	.st9{fill:#520425;}
	.st10{fill:#560E29;}
	.st11{fill:#540727;}
	.st12{fill:#530525;}
	.st13{fill:#530625;}
	.st14{fill:#500725;}
	.st15{fill:#530827;}
	.st16{fill:#55132A;}
	.st17{fill:#741F1F;}
	.st18{fill:#7E3029;}
	.st19{fill:#55C4F0;stroke:#55C4F0;stroke-width:0.5;stroke-miterlimit:10;}
	.st20{fill:none;stroke:#55C4F0;stroke-width:1.5;stroke-linecap:round;stroke-miterlimit:10;}
	.st21{fill:none;stroke:#55C4F0;stroke-width:1.4;stroke-linecap:round;stroke-miterlimit:10;}
</style>
<g>
	<path class="st0" d="M82.4,71.3h-4.2v-1.9c0-0.3-0.3-0.6-0.6-0.6h-1.3V43.5c0-1.5-1.2-2.7-2.6-2.7c0,0,0,0-0.1,0h-0.1
		c-0.5,0-1.1,0.1-1.5,0.4v-2.1c0-0.1,0-0.2-0.1-0.3c-0.5-1-1.4-1.7-2.5-2v-1.6c0-0.3-0.3-0.6-0.6-0.6c-0.3,0-0.6,0.3-0.6,0.6v1.6
		c-0.5,0.1-0.9,0.3-1.3,0.6V36c0-0.3-0.3-0.6-0.6-0.6h-2.7v-2.9c0-0.1,0-0.2-0.1-0.3c-0.7-1-1.7-1.7-2.9-1.9v-1.7
		c0-0.3-0.3-0.6-0.6-0.6c-0.3,0-0.6,0.3-0.6,0.6l0,0v1.7c-1.1,0.2-2.1,0.8-2.7,1.6H54v-1.3c0-0.1,0-0.2-0.1-0.3
		c-0.7-1.1-1.8-1.8-3-2.1v-1.6c0-0.3-0.3-0.6-0.6-0.6s-0.6,0.3-0.6,0.6l0,0v1.7c-1.3,0.2-2.4,0.9-3.1,2.1c0,0.1-0.1,0.2-0.1,0.3v1.3
		h-2.6c-0.7-0.9-1.6-1.4-2.7-1.6v-1.7c0-0.3-0.3-0.6-0.6-0.6c-0.3,0-0.6,0.3-0.6,0.6v1.7c-1.2,0.2-2.3,0.9-2.9,2
		c0,0.1-0.1,0.2-0.1,0.3v2.9h-2.7c-0.3,0-0.6,0.3-0.6,0.6v1.5c-0.4-0.3-0.9-0.5-1.3-0.6v-1.6c0-0.3-0.3-0.6-0.6-0.6
		c-0.3,0-0.6,0.3-0.6,0.6v1.6c-1.1,0.3-2,1-2.5,2c0,0.1,0,0.2-0.1,0.3v2.1c-0.5-0.3-1-0.5-1.6-0.4c-1.5,0-2.7,1.2-2.7,2.7
		c0,0,0,0,0,0.1v25.2h-1.3c-0.3,0-0.6,0.3-0.6,0.6v1.9h-4.7c-0.3,0-0.7,0.2-0.7,0.5c0,0.3,0.2,0.7,0.5,0.7c0.1,0,0.1,0,0.2,0h64.8
		c0.3,0,0.7-0.2,0.7-0.5c0-0.3-0.2-0.7-0.5-0.7C82.5,71.3,82.5,71.3,82.4,71.3L82.4,71.3z M72.1,68.7v-3.1l0,0v-3.4h3v6.5L72.1,68.7
		z M66.9,68.7v-2.9c0.4-0.7,1.2-1.2,2-1.2c0.8,0,1.6,0.5,1.9,1.2v2.9H66.9z M63.6,68.7v-3c0-0.1,0-0.1,0-0.2v-3.3h2.1v6.5H63.6z
		 M57.6,68.7v-2.9c0.5-0.8,1.4-1.3,2.4-1.3c1,0,1.9,0.5,2.4,1.3v2.9L57.6,68.7z M54,68.7v-6.5h2.4v6.5H54z M47.7,68.7v-2.7
		c0,0,0.1,0,0.1-0.1c0.5-0.8,1.4-1.4,2.4-1.4c1,0,2,0.5,2.5,1.4l0.1,0.1v2.7H47.7z M44.1,68.7v-6.5h2.3v6.5H44.1z M38.1,68.7v-2.9
		c0.5-0.8,1.4-1.3,2.3-1.3c1,0,1.9,0.5,2.4,1.3v2.9L38.1,68.7z M34.8,68.7v-6.5h2.1v6.5H34.8z M29.6,68.7v-2.9
		c0.4-0.7,1.1-1.2,2-1.2c0.8,0.1,1.6,0.5,2,1.2v2.9L29.6,68.7z M29.6,53.6c0.4-0.7,1.1-1.2,2-1.2c0.8,0.1,1.6,0.5,2,1.2v4.9h-3.9
		L29.6,53.6z M33.6,51.7c-0.6-0.4-1.2-0.7-1.9-0.7c-0.7,0-1.4,0.2-1.9,0.6v-5c0.4-0.7,1.1-1.2,1.9-1.2c0.8,0.1,1.6,0.5,2,1.2
		L33.6,51.7z M28.4,48v5.4l0,0v5h-3V48c0.3-0.5,0.9-0.8,1.5-0.9C27.5,47.1,28.1,47.5,28.4,48L28.4,48z M25.4,59.6h3V61h-3V59.6z
		 M29.7,59.6h3.9V61h-3.9L29.7,59.6z M38.2,46.3c0.5-0.8,1.4-1.2,2.3-1.3c1,0,1.9,0.5,2.4,1.3v5.4c-0.7-0.5-1.5-0.8-2.4-0.8
		c-0.8,0-1.7,0.3-2.3,0.8L38.2,46.3z M42.9,44.6c-0.7-0.5-1.5-0.8-2.4-0.8c-0.8,0-1.7,0.3-2.3,0.8v-4.7c0.5-0.8,1.4-1.3,2.3-1.3
		c1,0,1.9,0.5,2.4,1.3L42.9,44.6z M38.2,53.4c0.5-0.8,1.4-1.3,2.3-1.3c1,0,1.9,0.5,2.4,1.3v5h-4.8V53.4z M42.9,59.6V61h-4.8v-1.3
		H42.9z M47.7,45c0.6-0.8,1.5-1.4,2.5-1.3c1,0,2,0.5,2.6,1.4v5.7c-0.7-0.6-1.6-0.9-2.6-0.9c-0.9,0-1.8,0.3-2.5,0.8V45z M52.8,43.3
		c-0.7-0.6-1.6-0.9-2.6-0.9c-0.9,0-1.8,0.3-2.5,0.8v-5c0.6-0.8,1.5-1.3,2.5-1.3c1,0,2,0.5,2.6,1.4V43.3z M47.7,52.5
		c0.6-0.8,1.5-1.3,2.5-1.3c1,0,2,0.5,2.6,1.4v5.9h-5.1V52.5z M52.8,59.6V61h-5.1v-1.3H52.8z M57.6,46.3C58.1,45.5,59,45,60,45
		c1,0,1.9,0.5,2.4,1.3v5.4c-0.7-0.5-1.6-0.8-2.4-0.8c-0.8,0-1.7,0.3-2.3,0.8V46.3z M62.4,44.6c-0.7-0.5-1.6-0.8-2.4-0.8
		c-0.8,0-1.7,0.3-2.3,0.8v-4.7c0.5-0.8,1.4-1.3,2.3-1.3c1,0,1.9,0.5,2.4,1.3V44.6z M57.6,53.4c0.5-0.8,1.4-1.3,2.3-1.3
		c1,0,1.9,0.5,2.4,1.3v5h-4.8V53.4z M62.4,59.6V61h-4.8v-1.3H62.4z M75.2,61h-3v-1.4h3V61z M75.2,58.4h-3v-5l0,0V48
		c0.3-0.5,0.9-0.8,1.5-0.9c0.6,0,1.2,0.4,1.5,0.9L75.2,58.4z M70.9,47.7v4c-0.6-0.4-1.3-0.7-2-0.6c-0.7,0-1.4,0.2-2,0.7v-5
		c0.4-0.7,1.2-1.2,2-1.2c0.8,0,1.5,0.5,1.9,1.2L70.9,47.7z M67,53.6c0.4-0.7,1.1-1.2,2-1.2c0.8,0,1.6,0.5,1.9,1.2v4.9H67L67,53.6z
		 M70.9,59.6V61H67v-1.3H70.9z M70.9,64c-0.6-0.4-1.2-0.6-1.9-0.6c-0.7,0-1.4,0.2-2,0.7v-1.8h3.9L70.9,64z M65.7,61h-2.1v-1.3h2.1
		V61z M62.4,64.1c-0.7-0.5-1.5-0.8-2.4-0.8c-0.8,0-1.7,0.3-2.4,0.8v-1.9h4.8V64.1z M56.4,61H54v-1.3h2.4L56.4,61z M52.8,64.3
		c-0.7-0.6-1.6-0.9-2.6-0.9c-0.9,0-1.8,0.3-2.5,0.9v-2h5.1V64.3z M46.4,61h-2.3v-1.3h2.3V61z M42.9,64.1c-0.7-0.5-1.5-0.8-2.4-0.8
		c-0.8,0-1.7,0.3-2.3,0.8v-1.9h4.8L42.9,64.1z M36.9,61h-2.1v-1.3h2.1V61z M33.6,62.2V64c-0.6-0.4-1.3-0.6-2-0.6
		c-0.7,0-1.4,0.2-1.9,0.6v-1.8L33.6,62.2z M73.6,42.1L73.6,42.1c0.8,0,1.5,0.6,1.5,1.4c0,0,0,0.1,0,0.1v2.8c-0.5-0.3-1-0.5-1.5-0.4
		c-0.5,0-1,0.1-1.5,0.4v-2.8C72.2,42.7,72.8,42.1,73.6,42.1z M68.9,38.1c0.8,0,1.6,0.5,1.9,1.2v4.1c0,0,0,0,0,0.1c0,0.1,0,0,0,0.1
		v1.2c-0.6-0.4-1.2-0.6-1.9-0.6c-0.7,0-1.4,0.2-2,0.7v-5.6C67.4,38.6,68.1,38.1,68.9,38.1z M65.7,36.6v21.8h-2.1V36.6H65.7z
		 M59.9,31.4c1,0,1.9,0.5,2.4,1.3v5.5c-0.7-0.5-1.6-0.8-2.4-0.8c-0.8,0-1.7,0.3-2.3,0.8v-5.5C58.1,31.9,59,31.4,59.9,31.4L59.9,31.4
		z M56.4,33.1v25.3H54V33.1L56.4,33.1z M47.7,30.7c0.6-0.8,1.5-1.3,2.5-1.3c1,0,2,0.5,2.6,1.3v5.9c-0.7-0.6-1.6-0.9-2.6-0.9
		c-0.9,0-1.8,0.3-2.5,0.8V30.7z M46.4,58.5h-2.3V33.1h2.3V58.5z M38.2,32.7c0.5-0.8,1.4-1.3,2.3-1.3c1,0,1.9,0.5,2.4,1.3v5.5
		c-0.7-0.5-1.5-0.8-2.4-0.8c-0.8,0-1.7,0.3-2.3,0.8L38.2,32.7z M34.8,36.7h2.1v21.8h-2.1V36.7z M31.6,38.1c0.8,0.1,1.6,0.5,2,1.2
		v5.6c-0.6-0.4-1.3-0.7-2-0.7c-0.7,0-1.4,0.2-1.9,0.6v-1.2c0,0,0,0,0-0.1c0-0.1,0-0.1,0-0.1v-4.1C30.1,38.6,30.8,38.1,31.6,38.1z
		 M26.9,42.1L26.9,42.1c0.8,0,1.5,0.7,1.5,1.5v2.8c-0.5-0.3-1-0.4-1.5-0.4c-0.5,0-1,0.1-1.5,0.4v-2.7C25.4,42.8,26,42.1,26.9,42.1
		C26.9,42.1,26.9,42.1,26.9,42.1L26.9,42.1z M25.4,62.3h3v3.4l0,0v3.1h-3V62.3z M23.5,71.3V70H77v1.3L23.5,71.3z"/>
	<path class="st0" d="M31.6,54c-0.3,0-0.6,0.3-0.6,0.6v2c0,0.3,0.3,0.6,0.6,0.6c0.3,0,0.6-0.3,0.6-0.6v-2C32.2,54.3,32,54,31.6,54z"
		/>
	<path class="st0" d="M26.9,54.5c-0.3,0-0.6,0.3-0.6,0.6v1.5c0,0.3,0.3,0.6,0.6,0.6s0.6-0.3,0.6-0.6v-1.5
		C27.6,54.8,27.3,54.5,26.9,54.5z"/>
	<path class="st0" d="M26.9,49.4c-0.3,0-0.6,0.3-0.6,0.6v1.5c0,0.3,0.3,0.6,0.6,0.6s0.6-0.3,0.6-0.6v-1.5
		C27.6,49.7,27.3,49.4,26.9,49.4z"/>
	<path class="st0" d="M73.6,54.5c-0.3,0-0.6,0.3-0.6,0.6v1.5c0,0.3,0.3,0.6,0.6,0.6c0.3,0,0.6-0.3,0.6-0.6v-1.5
		C74.2,54.8,74,54.5,73.6,54.5z"/>
	<path class="st0" d="M73.6,49.4c-0.3,0-0.6,0.3-0.6,0.6v1.5c0,0.3,0.3,0.6,0.6,0.6c0.3,0,0.6-0.3,0.6-0.6c0,0,0,0,0,0v-1.5
		C74.2,49.7,74,49.4,73.6,49.4z"/>
	<path class="st0" d="M32.1,66.5c-0.2-0.2-0.6-0.2-0.9,0c-0.1,0.1-0.1,0.1-0.1,0.2c-0.1,0.2-0.1,0.3,0,0.5c0,0.1,0.1,0.1,0.1,0.2
		c0.1,0.1,0.3,0.2,0.4,0.2c0.2,0,0.3-0.1,0.4-0.2c0.1-0.1,0.1-0.1,0.1-0.2c0.1-0.2,0.1-0.3,0-0.5C32.2,66.6,32.1,66.5,32.1,66.5z"/>
	<path class="st0" d="M40.1,66.5c-0.1,0.1-0.2,0.3-0.2,0.4c0,0.3,0.3,0.6,0.6,0.6c0.1,0,0.2,0,0.2,0c0.1,0,0.1-0.1,0.2-0.1
		c0.1-0.1,0.2-0.3,0.2-0.4c0-0.2-0.1-0.3-0.2-0.4C40.7,66.3,40.4,66.3,40.1,66.5z"/>
	<path class="st0" d="M49.8,66.5c-0.1,0.1-0.2,0.3-0.2,0.4c0,0.2,0.1,0.3,0.2,0.4c0.1,0.1,0.3,0.2,0.4,0.2c0.2,0,0.3-0.1,0.4-0.2
		c0.1-0.1,0.1-0.1,0.1-0.2c0-0.1,0-0.2,0-0.2c0-0.3-0.3-0.6-0.6-0.6C50,66.3,49.9,66.4,49.8,66.5L49.8,66.5z"/>
	<path class="st0" d="M59.6,66.5c-0.1,0.1-0.2,0.3-0.2,0.4c0,0.2,0.1,0.3,0.2,0.4c0.1,0.1,0.3,0.2,0.4,0.2c0.1,0,0.2,0,0.2,0
		c0.1,0,0.1-0.1,0.2-0.1c0.1-0.1,0.1-0.1,0.1-0.2c0-0.1,0-0.2,0-0.3c0-0.2-0.1-0.3-0.2-0.4C60.2,66.2,59.8,66.2,59.6,66.5z"/>
	<path class="st0" d="M40.6,54c-0.3,0-0.6,0.3-0.6,0.6v2c0,0.3,0.3,0.6,0.6,0.6c0.3,0,0.6-0.3,0.6-0.6v-2C41.2,54.3,40.9,54,40.6,54
		L40.6,54z"/>
	<path class="st0" d="M50.3,54c-0.3,0-0.6,0.3-0.6,0.6v2c0,0.3,0.3,0.6,0.6,0.6c0.3,0,0.6-0.3,0.6-0.6v-2C50.9,54.3,50.6,54,50.3,54
		L50.3,54z"/>
	<path class="st0" d="M60,54c-0.3,0-0.6,0.3-0.6,0.6v2c0,0.3,0.3,0.6,0.6,0.6c0.3,0,0.6-0.3,0.6-0.6v-2C60.6,54.3,60.4,54,60,54z"/>
	<path class="st0" d="M31.6,47.2c-0.3,0-0.6,0.3-0.6,0.6v2c0,0.3,0.3,0.6,0.6,0.6c0.3,0,0.6-0.3,0.6-0.6c0,0,0,0,0,0v-2
		C32.2,47.5,32,47.2,31.6,47.2z"/>
	<path class="st0" d="M41.2,49.2v-2c0-0.4-0.3-0.6-0.6-0.6c-0.4,0-0.6,0.3-0.6,0.6v2c0,0.3,0.3,0.6,0.6,0.6S41.2,49.5,41.2,49.2
		L41.2,49.2z"/>
	<path class="st0" d="M50.9,48.2v-2c0-0.3-0.3-0.6-0.6-0.6c-0.3,0-0.6,0.3-0.6,0.6l0,0v2c0,0.3,0.3,0.6,0.6,0.6
		C50.6,48.9,50.9,48.6,50.9,48.2z"/>
	<path class="st0" d="M60.6,49.2v-2c0-0.3-0.3-0.6-0.6-0.6c0,0,0,0,0,0c-0.3,0-0.6,0.3-0.6,0.6v2c0,0.3,0.3,0.6,0.6,0.6
		C60.4,49.8,60.6,49.5,60.6,49.2C60.6,49.2,60.6,49.2,60.6,49.2z"/>
	<path class="st0" d="M31.6,42.9c0.3,0,0.6-0.3,0.6-0.6v-2c0-0.3-0.3-0.6-0.6-0.6c-0.3,0-0.6,0.3-0.6,0.6l0,0v2
		C31,42.6,31.3,42.9,31.6,42.9L31.6,42.9z"/>
	<path class="st0" d="M40.6,39.8c-0.3,0-0.6,0.3-0.6,0.6v2c0,0.3,0.3,0.6,0.6,0.6c0.3,0,0.6-0.3,0.6-0.6v-2
		C41.2,40,40.9,39.8,40.6,39.8L40.6,39.8z"/>
	<path class="st0" d="M50.3,38.3c-0.3,0-0.6,0.3-0.6,0.6v2c0,0.3,0.3,0.6,0.6,0.6c0.3,0,0.6-0.3,0.6-0.6v-2
		C50.9,38.6,50.6,38.3,50.3,38.3L50.3,38.3z"/>
	<path class="st0" d="M60,39.8c-0.3,0-0.6,0.3-0.6,0.6v2c0,0.3,0.3,0.6,0.6,0.6c0.3,0,0.6-0.3,0.6-0.6v-2C60.6,40,60.4,39.8,60,39.8
		z"/>
	<path class="st0" d="M40.6,36.3c0.3,0,0.6-0.3,0.6-0.6v-1.9c0-0.4-0.3-0.6-0.6-0.6c-0.4,0-0.6,0.3-0.6,0.6v2
		C39.9,36.1,40.2,36.3,40.6,36.3z"/>
	<path class="st0" d="M50.3,34.3c0.3,0,0.6-0.3,0.6-0.6v-2c0-0.3-0.3-0.6-0.6-0.6s-0.6,0.3-0.6,0.6l0,0v2
		C49.7,34.1,49.9,34.3,50.3,34.3z"/>
	<path class="st0" d="M60,36.3c0.3,0,0.6-0.3,0.6-0.6v-1.9c0-0.3-0.3-0.6-0.6-0.6c0,0,0,0,0,0c-0.3,0-0.6,0.3-0.6,0.6v2
		C59.4,36,59.7,36.3,60,36.3z"/>
	<path class="st0" d="M68.9,54c-0.3,0-0.6,0.3-0.6,0.6v2c0,0.3,0.3,0.6,0.6,0.6c0.3,0,0.6-0.3,0.6-0.6c0,0,0,0,0,0v-2
		C69.6,54.3,69.3,54,68.9,54z"/>
	<path class="st0" d="M68.7,66.3c-0.1,0-0.1,0.1-0.2,0.1c-0.1,0.1-0.2,0.3-0.2,0.4c0,0.2,0.1,0.3,0.2,0.4c0.1,0.1,0.1,0.1,0.2,0.1
		c0.2,0.1,0.5,0,0.7-0.1c0.1-0.1,0.2-0.3,0.2-0.4c0-0.2-0.1-0.3-0.2-0.4C69.2,66.3,68.9,66.2,68.7,66.3z"/>
	<path class="st0" d="M68.9,47.2c-0.3,0-0.6,0.3-0.6,0.6v2c0,0.3,0.3,0.6,0.6,0.6c0.3,0,0.6-0.3,0.6-0.6c0,0,0,0,0,0v-2
		C69.6,47.5,69.3,47.2,68.9,47.2z"/>
	<path class="st0" d="M68.9,42.9c0.3,0,0.6-0.3,0.6-0.6v-2c0-0.3-0.3-0.6-0.6-0.6c-0.3,0-0.6,0.3-0.6,0.6v2
		C68.3,42.6,68.6,42.9,68.9,42.9z"/>
</g>
</svg>
