<?xml version="1.0" encoding="utf-8"?>
<!-- Generator: Adobe Illustrator 21.0.0, SVG Export Plug-In . SVG Version: 6.00 Build 0)  -->
<svg version="1.1" id="Layer_1" xmlns="http://www.w3.org/2000/svg" xmlns:xlink="http://www.w3.org/1999/xlink" x="0px" y="0px"
	 viewBox="0 0 100 100" style="enable-background:new 0 0 100 100;" xml:space="preserve">
<style type="text/css">
	.st0{fill:#55C4F0;}
	.st1{fill:#55C4F0;stroke:#55C4F0;stroke-width:0.25;stroke-miterlimit:10;}
	.st2{fill:#A07478;}
	.st3{fill:#A2757B;}
	.st4{fill:#A07278;}
	.st5{fill:#560327;}
	.st6{fill:#510324;}
	.st7{fill:#530626;}
	.st8{fill:#570426;}
	.st9{fill:#520425;}
	.st10{fill:#560E29;}
	.st11{fill:#540727;}
	.st12{fill:#530525;}
	.st13{fill:#530625;}
	.st14{fill:#500725;}
	.st15{fill:#530827;}
	.st16{fill:#55132A;}
	.st17{fill:#741F1F;}
	.st18{fill:#7E3029;}
	.st19{fill:#55C4F0;stroke:#55C4F0;stroke-width:0.5;stroke-miterlimit:10;}
	.st20{fill:none;stroke:#55C4F0;stroke-width:1.5;stroke-linecap:round;stroke-miterlimit:10;}
	.st21{fill:none;stroke:#55C4F0;stroke-width:1.4;stroke-linecap:round;stroke-miterlimit:10;}
</style>
<path class="st0" d="M89.7,75.8H84V55.4h0.5c0.3,0,0.6-0.3,0.6-0.6c0-0.3-0.3-0.6-0.6-0.6h-0.5v-1.9c0-0.3-0.3-0.6-0.6-0.6h-1V48
	c0-1.9-1.1-3.6-2.8-4.5v-1.5c0-0.3-0.3-0.6-0.6-0.6s-0.6,0.3-0.6,0.6v1.5c-1.7,0.9-2.7,2.6-2.8,4.5c0,0,0,0,0,0.1s0,0,0,0v3.6h-1
	c-0.3,0-0.6,0.3-0.6,0.6c0,0,0,0,0,0v1.9h-0.5c-0.3,0-0.6,0.3-0.6,0.6c0,0.3,0.3,0.6,0.6,0.6h0.5v3.1h-9.7v-3.8c0-2-1.2-3.7-3-4.5
	v-1.5c0-0.3-0.3-0.6-0.6-0.6c-0.3,0-0.6,0.3-0.6,0.6v1.6c-0.7,0.4-1.3,0.9-1.7,1.5c-0.2-0.4-0.5-0.8-0.9-1.1v-3h0.6
	c0.3,0,0.6-0.3,0.6-0.6c0-0.3-0.3-0.6-0.6-0.6h-0.7c-0.3-1.5-1.5-5.7-5.2-6.8v-0.8c0-0.9-0.5-1.8-1.3-2.3v-2.3
	c0-0.3-0.3-0.6-0.6-0.6c-0.3,0-0.6,0.3-0.6,0.6l0,0v2.3c-0.8,0.5-1.3,1.3-1.3,2.3v0.7c-3.3,1-4.8,4.5-5.2,6.9h-0.6
	c-0.3,0-0.6,0.3-0.6,0.6c0,0.3,0.3,0.6,0.6,0.6h0.6v3c-0.4,0.3-0.7,0.7-0.9,1.1c-0.5-0.6-1.1-1.1-1.7-1.5v-1.6
	c0-0.3-0.3-0.6-0.6-0.6c-0.3,0-0.6,0.3-0.6,0.6v1.5c-1.8,0.8-3.1,2.6-3.1,4.5v3.8h-9.7v-3.1h0.5c0.3,0,0.6-0.3,0.6-0.6
	c0-0.3-0.3-0.6-0.6-0.6h-0.5v-1.9c0-0.3-0.3-0.6-0.6-0.6c0,0,0,0,0,0h-1V48l0,0c0,0,0,0,0-0.1c0-1.9-1.1-3.6-2.8-4.5v-1.5
	c0-0.3-0.3-0.6-0.6-0.6s-0.6,0.3-0.6,0.6v1.5c-1.7,0.8-2.8,2.6-2.8,4.5v3.7h-1c-0.3,0-0.6,0.3-0.6,0.6v1.9h-0.4
	c-0.3,0-0.6,0.3-0.6,0.6c0,0.3,0.3,0.6,0.6,0.6h0.5v20.4h-5.7c-0.3,0-0.7,0.2-0.7,0.5S9.8,77,10.2,77c0.1,0,0.1,0,0.2,0h79.4
	c0.3,0,0.7-0.2,0.7-0.5c0-0.3-0.2-0.7-0.5-0.7C89.8,75.8,89.7,75.8,89.7,75.8z M78.9,71.2c-0.3,0-0.6,0.3-0.6,0.6c0,0,0,0,0,0v1.7
	h-3.1v-4.8h7.6v4.8h-3.1v-1.7C79.6,71.4,79.3,71.2,78.9,71.2C79,71.2,78.9,71.2,78.9,71.2z M71,73.4c-0.2-1-0.8-1.8-1.7-2.2
	c-0.2-0.1-0.4-0.1-0.6,0c-0.9,0.5-1.5,1.3-1.7,2.2h-2.8v-4.8h9.7v4.8H71z M69.7,73.4h-1.4c0.1-0.4,0.4-0.7,0.7-0.9
	C69.3,72.7,69.6,73.1,69.7,73.4z M60.8,71.1c-0.3,0-0.6,0.3-0.6,0.6v1.7h-1.7v-4.8h4.4v4.8h-1.5v-1.7C61.4,71.4,61.1,71.2,60.8,71.1
	L60.8,71.1L60.8,71.1z M39.3,71.1c-0.3,0-0.6,0.3-0.6,0.6v1.7h-1.5v-4.8h4.4v4.8h-1.7v-1.7C39.9,71.4,39.6,71.2,39.3,71.1L39.3,71.1
	L39.3,71.1z M33.1,73.4c-0.2-1-0.9-1.8-1.7-2.2c-0.2-0.1-0.4-0.1-0.6,0c-0.9,0.5-1.5,1.3-1.8,2.2h-2.9v-4.8h9.7v4.8H33.1z
	 M31.8,73.4h-1.4c0.1-0.4,0.4-0.7,0.7-0.9C31.4,72.7,31.7,73.1,31.8,73.4z M21.1,71.2c-0.3,0-0.6,0.3-0.6,0.6v1.7h-3.1v-4.8H25v4.8
	h-3.1v-1.7c0-0.3-0.3-0.6-0.6-0.6C21.2,71.1,21.2,71.2,21.1,71.2z M37.1,60.2C37.1,60.2,37.1,60.2,37.1,60.2v-4.8h4.4v0.8
	c0,0,0,0,0,0.1v5.1h-4.4V60.2z M44.5,51.3h11c0.9,0,1.6,0.7,1.7,1.5h-5.7c-0.3-0.4-0.7-0.8-1.2-1c-0.2-0.1-0.4-0.1-0.6,0
	c-0.5,0.3-0.9,0.6-1.3,1h-5.7C42.9,51.9,43.6,51.3,44.5,51.3z M49.4,47.7V50h-2.1v-2.4H49.4z M50.6,50v-2.4h2.1V50H50.6z M82.7,67.4
	h-3.1v-1.6c0-0.3-0.3-0.6-0.6-0.6s-0.6,0.3-0.6,0.6v1.6h-3.1v-4.8h7.6L82.7,67.4z M73.9,67.4H71c-0.2-0.9-0.9-1.7-1.7-2.2
	c-0.2-0.1-0.4-0.1-0.6,0c-0.9,0.5-1.5,1.3-1.7,2.2h-2.8v-4.8h9.7L73.9,67.4z M69.7,67.4h-1.4c0.2-0.4,0.4-0.7,0.7-0.9
	C69.3,66.7,69.6,67.1,69.7,67.4L69.7,67.4z M60.8,65.1c-0.3,0-0.6,0.3-0.6,0.6v1.6h-1.7v-4.8h4.4v4.8h-1.5v-1.6
	C61.4,65.4,61.1,65.1,60.8,65.1C60.8,65.1,60.8,65.1,60.8,65.1z M49.2,54.5c0-0.6,0.3-1.2,0.8-1.5c0.5,0.3,0.8,0.9,0.8,1.5v0.9h-1.6
	V54.5z M57.2,56.8v1.6H42.8v-1.6H57.2z M45.2,73.4h-2.4V59.7h2.4V73.4z M46.5,59.7h7.1V64c-0.9-1-2.1-1.7-3.5-1.9H50
	c-1.3,0.2-2.6,0.8-3.5,1.9L46.5,59.7z M54.8,67.2v-7.4h2.4v13.7h-2.4L54.8,67.2z M62.9,61.3h-4.4v-5.1c0,0,0,0,0-0.1v-0.8h4.4V61.3z
	 M57.2,55.6h-5.1v-1c0-0.2,0-0.3,0-0.5h5.2L57.2,55.6z M48,54c0,0.2,0,0.3,0,0.5v1h-5.1v-1.5L48,54z M41.6,62.6v4.8h-1.7v-1.6
	c0-0.3-0.3-0.6-0.6-0.6c-0.3,0-0.6,0.3-0.6,0.6v1.6h-1.5v-4.8H41.6z M35.9,67.4h-2.8c-0.2-0.9-0.9-1.7-1.7-2.2
	c-0.2-0.1-0.4-0.1-0.6,0c-0.8,0.5-1.5,1.3-1.7,2.2h-3v-4.8h9.7V67.4z M31.8,67.4h-1.4c0.1-0.4,0.4-0.7,0.7-0.9
	C31.4,66.7,31.6,67,31.8,67.4z M24.9,67.4h-3.1v-1.6c0-0.3-0.3-0.6-0.6-0.6s-0.6,0.3-0.6,0.6v1.6h-3.1v-4.8H25L24.9,67.4z
	 M46.5,67.2c0.1-2,1.6-3.6,3.5-3.8c2,0.2,3.5,1.8,3.6,3.8v6.3h-7.1V67.2z M78.8,44.5c1.2,0.5,2,1.6,2.2,2.8h-4.2
	C77.1,46.2,77.8,45.1,78.8,44.5L78.8,44.5z M76.7,48.6H81v3h-1.5v-1.3c0-0.3-0.3-0.6-0.6-0.6c-0.3,0-0.6,0.3-0.6,0.6c0,0,0,0,0,0
	v1.3h-1.5L76.7,48.6z M75.1,52.9h7.6v1.3h-7.6L75.1,52.9z M82.7,55.4v5.9h-7.6v-5.9L82.7,55.4z M73.8,59.7v1.6h-9.7v-1.6L73.8,59.7z
	 M60.6,51.2c1.2,0.5,2,1.6,2.2,2.9h-4.3C58.7,52.9,59.5,51.8,60.6,51.2L60.6,51.2z M55.5,50H54v-2.3H56v2.4C55.9,50,55.7,50,55.5,50
	L55.5,50z M49.3,38.8c0-0.5,0.2-1,0.7-1.2c0.4,0.3,0.7,0.7,0.7,1.2v0.5c-0.3,0-0.5-0.1-0.8-0.1c-0.2,0-0.4,0-0.6,0L49.3,38.8z
	 M49.9,40.5c4.3,0,5.6,4.2,6,5.9H44.1C44.5,44.7,45.8,40.5,49.9,40.5z M44,47.7h2.1V50h-1.6c-0.2,0-0.3,0-0.5,0L44,47.7z M39.4,51.2
	c1.1,0.6,1.9,1.6,2.1,2.9h-4.3C37.4,52.8,38.2,51.7,39.4,51.2z M35.9,59.7v1.6h-9.7v-1.6L35.9,59.7z M21.2,44.6
	c1.1,0.6,1.9,1.6,2.1,2.9H19C19.2,46.1,20,45.1,21.2,44.6z M19,48.7h4.3v3h-1.5v-1.3c0-0.3-0.3-0.6-0.6-0.6c0,0,0,0,0,0
	c-0.3,0-0.6,0.3-0.6,0.6v1.3H19L19,48.7z M17.3,52.9H25v1.3h-7.6L17.3,52.9z M25,55.4v5.9h-7.6v-5.9H25z M17.3,75.8v-1h65.4v1H17.3z
	"/>
<path class="st0" d="M20.3,59.1c0.6,0,1-0.4,1-1c0-0.6-0.4-1-1-1c-0.6,0-1,0.4-1,1c0,0,0,0,0,0C19.4,58.6,19.8,59.1,20.3,59.1z"/>
<path class="st0" d="M38.8,56.9c-0.4,0-0.6,0.3-0.6,0.6v1.1c0,0.4,0.3,0.6,0.6,0.6c0.4,0,0.6-0.3,0.6-0.6v-1.1
	C39.4,57.1,39.2,56.9,38.8,56.9z"/>
<path class="st0" d="M79.1,59.1c0.6,0,1-0.4,1-1c0-0.6-0.4-1-1-1c-0.6,0-1,0.4-1,1S78.6,59.1,79.1,59.1L79.1,59.1z"/>
<path class="st0" d="M60.7,59.2c0.4,0,0.6-0.3,0.6-0.6v-1.1c0-0.4-0.3-0.6-0.6-0.6c-0.4,0-0.6,0.3-0.6,0.6l0,0v1.1
	C60,58.9,60.3,59.2,60.7,59.2C60.7,59.2,60.7,59.2,60.7,59.2z"/>
</svg>
