<svg xmlns="http://www.w3.org/2000/svg" viewBox="0 0 340.81 408.88"><g id="Layer_2" data-name="Layer 2"><g id="Layer_1-2" data-name="Layer 1"><path d="M242.32,0c8,1.64,15.22,4.57,20.91,10.66,6.83,7.31,9.47,16.07,9.46,25.91q0,106.79,0,213.57v5.41c2.33,0,4.53,0,6.72,0,16.34.09,27,10.47,27.4,26.82.12,4.52,0,9.05,0,13.57.05,6.73,3.37,10.8,8.63,10.66s8.33-4.09,8.33-10.62q0-49.1,0-98.21v-44.4c-7.5-.5-14.22-2.33-20-6.69-9.66-7.25-14-17.13-14.08-29-.07-7.32,0-14.64,0-22a12.71,12.71,0,0,1,4.06-9.58c8.81-8.66,17.51-17.44,26.71-26.65-4.53-4.43-8.89-8.66-13.2-12.94-4.91-4.87-9.87-9.7-14.63-14.72-3.27-3.45-3.58-7.51-1.29-10.91a8,8,0,0,1,9.4-3.29,14.5,14.5,0,0,1,4.89,3.29C316.09,31.3,326.49,41.8,337,52.2a12.26,12.26,0,0,1,3.83,9.25q-.07,117.77,0,235.53c0,11.36-5,19.9-15.36,24.45-9.7,4.25-19,2.65-27.13-4.39-6.26-5.43-8.55-12.62-8.62-20.66,0-4.53,0-9.05,0-13.58-.1-7-3.21-10.09-10.31-10.26-2.09-.05-4.18,0-6.46,0V340c4.83,1.39,9.79,2.11,14.11,4.17,13.33,6.34,19.51,17.47,19.8,32,.15,7.45.11,14.9,0,22.35-.09,7.2-3.37,10.37-10.65,10.37H10.65c-7.4,0-10.47-3.05-10.54-10.39C.05,391.7.37,384.9.05,378.12c-1-20.84,13.82-36.47,33.74-37.41.09-1.73.26-3.52.26-5.31q0-148.9,0-297.81C34,25,37.6,14,48.3,6.78,53,3.61,58.87,2.21,64.2,0ZM51.22,340.47H255.69V194.1q0-78.66,0-157.32c0-12.51-6.55-19.74-18.44-19.76q-83.86-.14-167.73,0c-5.25,0-10,1.49-13.68,5.44s-4.64,8.74-4.64,14q.06,149.92,0,299.86Zm238,51.21c0-7.08.75-14.05-.19-20.79-1.16-8.26-8.73-13.12-18.41-13.12H36.25a28.59,28.59,0,0,0-3.59.11c-7.11.89-12.87,4.49-14.35,11.42-1.55,7.22-1.15,14.86-1.61,22.38Zm34.4-311.5c-5.74,5.8-10.8,10.85-15.76,16a4.52,4.52,0,0,0-1,2.84c0,7.31-.22,14.64.17,21.93a15.93,15.93,0,0,0,16.61,14.89Z"/><path d="M153.14,153.42q-36.91,0-73.83,0c-8.18,0-11.1-2.91-11.11-11q0-48.68,0-97.36c0-7.9,3-10.9,10.83-10.9q74.43,0,148.86,0c7.66,0,10.63,3,10.63,10.61q0,49.08,0,98.16c0,7.59-3,10.5-10.75,10.5Q190.47,153.44,153.14,153.42ZM85.4,136.2H221.34V51.33H85.4Z"/></g></g></svg>