<?xml version="1.0" encoding="utf-8"?>
<!-- Generator: Adobe Illustrator 21.0.0, SVG Export Plug-In . SVG Version: 6.00 Build 0)  -->
<svg version="1.1" id="Layer_1" xmlns="http://www.w3.org/2000/svg" xmlns:xlink="http://www.w3.org/1999/xlink" x="0px" y="0px"
	 viewBox="0 0 100 100" style="enable-background:new 0 0 100 100;" xml:space="preserve">
<style type="text/css">
	.st0{fill:#54C2EF;}
</style>
<path class="st0" d="M94.1,91.5h-5.5V73.2c0,0,0-0.1,0-0.1l2.6-2.9c0.2-0.2,0.2-0.5,0.1-0.8c-0.1-0.3-0.4-0.4-0.7-0.4h-2v-3.5h0.8
	c0.4,0,0.8-0.3,0.8-0.8s-0.3-0.8-0.8-0.8h-0.8v-2.9c0-0.4-0.3-0.8-0.8-0.8H69.8V49.8l0,0l0,0c0-2.2-2.1-4.7-2.8-5.4v-2
	c0-0.4-0.3-0.8-0.8-0.8s-0.8,0.3-0.8,0.8l0,0v2c-0.7,0.8-2.7,3.4-2.7,5.4l0,0l0,0v3.6c-0.3-0.2-0.7-0.3-1.1-0.3
	c-0.7,0-1.3,0.3-1.8,0.8c-0.5-0.5-1.1-0.8-1.8-0.8l0,0c-0.7,0-1.3,0.3-1.8,0.8c-0.5-0.5-1.2-0.7-1.9-0.7c-0.7,0-1.3,0.3-1.8,0.8
	c-0.5-0.5-1.1-0.8-1.8-0.8l0,0c-0.7,0-1.3,0.3-1.8,0.8c-0.5-0.5-1.1-0.8-1.9-0.8c-0.7,0-1.3,0.3-1.8,0.8c-0.5-0.5-1.1-0.8-1.8-0.8
	l0,0c-0.7,0-1.3,0.3-1.8,0.8c-0.5-0.5-1.1-0.8-1.9-0.8c-0.4,0-0.7,0.1-1,0.3v-3.5l0,0l0,0c0-2.2-2.1-4.7-2.8-5.4v-2
	c0-0.4-0.3-0.8-0.8-0.8c-0.4,0-0.8,0.3-0.8,0.8l0,0v2c-0.7,0.8-2.8,3.4-2.8,5.4l0,0l0,0V60H13.3c-0.4,0-0.8,0.3-0.8,0.8v2.9h-0.7
	c-0.4,0-0.8,0.3-0.8,0.8c0,0.4,0.3,0.8,0.8,0.8h0.7v3.5h-1.8c-0.4,0-0.8,0.3-0.8,0.7c0,0.2,0.1,0.4,0.2,0.6l2.4,3.2v18.3H7
	c-0.4-0.1-0.8,0.2-0.9,0.7C6.1,92.6,6.4,93,6.8,93c0.1,0,0.1,0,0.2,0h87.1c0.4,0.1,0.8-0.2,0.9-0.7c0.1-0.4-0.2-0.8-0.7-0.9
	C94.3,91.5,94.2,91.5,94.1,91.5z M26.3,91.2h-7.1v-6.4h7.1V91.2z M19.3,83.2c0.4-1.9,1.7-3.5,3.4-4.5c1.7,0.9,3,2.6,3.5,4.5
	L19.3,83.2L19.3,83.2z M31.8,91.4h-4V84c0,0,0-0.1,0-0.1c-0.2-4.5-4.6-6.6-4.8-6.7c-0.2-0.1-0.4-0.1-0.6,0c-0.2,0.1-4.5,2.2-4.7,6.7
	c0,0,0,0.1,0,0.1v7.5H14V74.1h17.8V91.4z M31.8,72.5H13.9l-1.6-2.1h19.5V72.5z M31.8,68.8H14v-3.5h17.8V68.8z M31.8,63.8H14v-2h17.8
	V63.8z M35.3,45.8c0.8,1,1.5,2.1,1.9,3.3h-3.8C33.9,47.9,34.5,46.8,35.3,45.8L35.3,45.8z M37.3,91.5h-4v-4.8h4V91.5z M37.3,85h-4
	V74.1h4V85z M37.3,72.5h-4v-2.1h4V72.5z M37.3,68.8h-4v-7.2h4V68.8z M37.3,55.8v4.3h-4v-4.4h4V55.8z M37.3,54.1H36v-1
	c0-0.4-0.3-0.8-0.8-0.8c-0.4,0-0.8,0.3-0.8,0.8l0,0v1h-1.3v-3.4h4L37.3,54.1z M57.1,55.8c0-0.2,0.1-0.5,0.2-0.7
	c0.2-0.3,0.5-0.5,0.8-0.4c0.3,0,0.6,0.2,0.8,0.4c0.1,0.2,0.2,0.4,0.3,0.7v0.7h-2.1V55.8z M53.4,55.8c0-0.2,0.1-0.5,0.2-0.7
	c0.2-0.3,0.5-0.5,0.8-0.4c0.3,0,0.7,0.1,0.8,0.4c0.1,0.2,0.2,0.4,0.3,0.7v0.7h-2.1V55.8z M49.8,55.8c0-0.2,0.1-0.5,0.2-0.7
	c0.2-0.3,0.5-0.5,0.8-0.4c0.3,0,0.6,0.2,0.8,0.4c0.1,0.2,0.2,0.4,0.3,0.7v0.7h-2.1V55.8z M46.1,55.8c0-0.2,0.1-0.5,0.2-0.7
	c0.2-0.3,0.5-0.5,0.8-0.4c0.4,0,0.7,0.2,0.8,0.5c0.1,0.2,0.2,0.4,0.3,0.7v0.7h-2.1V55.8z M42.5,55.8c0-0.2,0.1-0.5,0.2-0.7
	c0.2-0.3,0.5-0.5,0.8-0.4c0.3,0,0.6,0.2,0.8,0.4c0.1,0.2,0.2,0.4,0.3,0.7v0.7h-2.1V55.8z M38.8,55.8c0-0.2,0.1-0.5,0.2-0.7
	c0.3-0.4,0.9-0.6,1.3-0.3c0.1,0.1,0.2,0.2,0.3,0.3c0.1,0.2,0.2,0.4,0.3,0.7v0.7h-2.1V55.8z M43.1,91.4h-4.3v-1.8h4.3V91.4z
	 M57.3,91.4H44.7V81.1c0-4,5.1-5.9,6.3-6.3c1.1,0.4,6.3,2.4,6.3,6.3L57.3,91.4z M62.9,91.4h-4.1v-1.8h4L62.9,91.4z M62.9,88h-4.1
	v-6.9c0-5.5-7.3-7.8-7.6-7.9c-0.1,0-0.3,0-0.4,0c-0.3,0.1-7.6,2.2-7.6,7.9v6.9h-4.3V70.4h24L62.9,88z M62.9,68.8h-24v-3.5h1.5v1.7
	c0,0.4,0.3,0.8,0.8,0.8c0.4,0,0.8-0.3,0.8-0.8v-1.7h3v1.7c0,0.4,0.3,0.8,0.7,0.8c0,0,0,0,0,0c0.4,0,0.8-0.3,0.8-0.8v-1.7h3v1.7
	c0,0.4,0.3,0.8,0.8,0.8c0.4,0,0.8-0.3,0.8-0.8v-1.7h3v1.7c0,0.4,0.3,0.8,0.8,0.8c0.4,0,0.8-0.3,0.8-0.8v-1.7h3v1.7
	c0,0.4,0.3,0.8,0.8,0.8c0.4,0,0.8-0.3,0.8-0.7c0,0,0,0,0,0v-1.7h2.6L62.9,68.8z M62.9,63.8h-24v-2.1h24L62.9,63.8z M62.9,60.1h-24
	v-2h24L62.9,60.1z M62.9,56.5h-2.1v-0.7c0-0.2,0.1-0.5,0.2-0.7c0.2-0.3,0.5-0.5,0.8-0.4c0.3,0,0.7,0.1,0.8,0.4
	c0.1,0.2,0.2,0.4,0.3,0.7L62.9,56.5z M66.4,45.7c0.8,1,1.5,2.1,1.9,3.3h-3.8C64.9,47.9,65.6,46.8,66.4,45.7L66.4,45.7z M68.4,91.4
	h-4v-4.8h4L68.4,91.4z M68.4,85h-4V74.1h4L68.4,85z M68.4,72.5h-4v-2h4L68.4,72.5z M68.4,68.8h-4v-7.1h4L68.4,68.8z M68.4,60h-4
	v-4.4h4L68.4,60z M68.4,54h-1.3v-1c0-0.4-0.3-0.8-0.8-0.8c-0.4,0-0.8,0.3-0.8,0.8l0,0v1h-1.2v-3.4h4L68.4,54z M69.8,61.7h17.3v2.2
	H69.8V61.7z M69.8,65.4h17.3v3.5H69.8V65.4z M81.9,91.2h-7.1v-6.4h7.1V91.2z M74.9,83.2c0.4-1.9,1.7-3.5,3.4-4.5
	c1.7,0.9,3,2.5,3.5,4.5H74.9z M87.1,91.4h-3.7V84c0-0.1,0-0.1,0-0.2c-0.2-4.4-4.6-6.5-4.8-6.6c-0.2-0.1-0.4-0.1-0.7,0
	c-0.2,0.1-4.5,2.2-4.7,6.7c0,0,0,0,0,0.1v7.5h-3.5V74.1h17.2L87.1,91.4z M87,72.5H69.8v-2.1h19L87,72.5z"/>
</svg>
