<svg xmlns="http://www.w3.org/2000/svg" viewBox="0 0 383.32 383.25"><g id="Layer_2" data-name="Layer 2"><g id="Layer_1-2" data-name="Layer 1"><path d="M193.89,0c4.45,2.16,6,5.81,5.85,10.62-.17,9.33-.05,18.66-.05,28,0,3.27-.85,6.15-3.82,8-4.5,2.81-11.27.78-11.55-4.35-.67-12.24-.42-24.55.05-36.81.07-1.88,3.27-3.64,5-5.46Z"/><path d="M383.32,193.89c-2.19,4.41-5.8,6-10.63,5.85-9.33-.18-18.66-.06-28-.05-3.44,0-6.4-1-8.22-4.14-3.05-5.34.57-11.54,7.1-11.89,4.47-.24,9-.06,13.44-.07,5.23,0,10.46.16,15.68,0,4.82-.19,8.44,1.42,10.62,5.85Z"/><path d="M209.09,159.64h4.52c16,0,31.94,0,47.9,0,3.71,0,7,.7,8.94,4.23s.83,6.65-1.22,9.77Q222.81,244,176.44,314.44c-2.93,4.44-6.38,5.88-10.36,4.43s-5.67-4.95-5-10.12q6.54-49.11,13.1-98.21a26.43,26.43,0,0,0,0-3h-4.08c-16.09,0-32.18-.05-48.27,0-3.87,0-7.26-.61-9.17-4.38s-.46-6.88,1.87-10Q161.3,131,208.05,68.82a13.13,13.13,0,0,1,7.08-4.76c5.11-1.05,9.13,4,8.2,9.73Q218.21,105,213,136.11C211.73,143.72,210.47,151.34,209.09,159.64Zm39.57,16.09h-5c-14.22,0-28.43.06-42.65,0-7,0-10.17-4.1-9-11q3.57-21,7-42c1-6.15,2-12.3,3-18.45l-.63-.22-65.66,87.56c16.27,0,31.61,0,47,0,6.11,0,9.57,3.88,8.79,9.86-2.29,17.54-4.68,35.07-7,52.61-1,7.22-1.87,14.45-2.81,21.67l.86.33C204.4,242.92,226.28,209.72,248.66,175.73Z"/><path d="M23.85,199.69c-5,0-10,.08-14.93,0-5.42-.11-8.91-3.33-8.92-8s3.49-8,8.89-8q15.12-.15,30.24,0c5.2.06,8.61,3.28,8.73,7.81s-3.37,8-8.7,8.24H23.85Z"/><path d="M183.6,359.4c0-5-.07-9.95,0-14.93.09-5.46,3.2-9,7.85-9.07,4.81-.11,8.15,3.46,8.2,9.1q.12,14.75,0,29.49c0,5.7-3.24,9.27-8,9.26s-7.94-3.59-8-9.29C183.54,369.11,183.6,364.26,183.6,359.4Z"/><path d="M92.89,84.08c-.77,3.72-2.28,6.17-5.31,7.47a7.54,7.54,0,0,1-8.68-1.43c-4-3.79-7.81-7.72-11.69-11.59-3.53-3.53-7.11-7-10.57-10.6-3.6-3.76-3.75-8.39-.55-11.66S64.2,53,68,56.76c7.11,7,14.21,14,21.13,21.2C90.78,79.64,91.67,82,92.89,84.08Z"/><path d="M320.45,53.8c4.38.16,6.84,1.65,8.23,4.63,1.61,3.46.81,6.61-1.79,9.25-5.78,5.87-11.62,11.67-17.44,17.49-1.68,1.67-3.29,3.42-5.09,5a8,8,0,0,1-11.13-.26,7.75,7.75,0,0,1-.1-10.84q11.31-11.69,23-23C317.49,54.76,319.56,54.24,320.45,53.8Z"/><path d="M62.75,329.52c-4.45-.26-6.88-1.8-8.22-4.8A7.4,7.4,0,0,1,56,316.07c4.13-4.32,8.41-8.51,12.64-12.75,3.17-3.18,6.3-6.4,9.54-9.51,3.68-3.52,8.49-3.69,11.7-.55s3.22,8.07-.32,11.69q-10.86,11.1-22,21.92C66.06,328.31,63.8,329,62.75,329.52Z"/><path d="M300.18,291c.87.46,3,1.07,4.44,2.44q11.29,10.92,22.26,22.18c3.45,3.53,3.43,8.19.32,11.38s-8,3.32-11.66-.26c-7.4-7.24-14.67-14.6-22-21.95a7.76,7.76,0,0,1-1.76-9.26C293.17,292.54,295.65,291.1,300.18,291Z"/></g></g></svg>