<?xml version="1.0" encoding="utf-8"?>
<!-- Generator: Adobe Illustrator 21.0.0, SVG Export Plug-In . SVG Version: 6.00 Build 0)  -->
<svg version="1.1" id="Layer_1" xmlns="http://www.w3.org/2000/svg" xmlns:xlink="http://www.w3.org/1999/xlink" x="0px" y="0px"
	 viewBox="0 0 100 100" style="enable-background:new 0 0 100 100;" xml:space="preserve">
<style type="text/css">
	.st0{fill:#55C4F0;}
	.st1{fill:#55C4F0;stroke:#55C4F0;stroke-width:0.25;stroke-miterlimit:10;}
	.st2{fill:#A07478;}
	.st3{fill:#A2757B;}
	.st4{fill:#A07278;}
	.st5{fill:#560327;}
	.st6{fill:#510324;}
	.st7{fill:#530626;}
	.st8{fill:#570426;}
	.st9{fill:#520425;}
	.st10{fill:#560E29;}
	.st11{fill:#540727;}
	.st12{fill:#530525;}
	.st13{fill:#530625;}
	.st14{fill:#500725;}
	.st15{fill:#530827;}
	.st16{fill:#55132A;}
	.st17{fill:#741F1F;}
	.st18{fill:#7E3029;}
	.st19{fill:#55C4F0;stroke:#55C4F0;stroke-width:0.5;stroke-miterlimit:10;}
	.st20{fill:none;stroke:#55C4F0;stroke-width:1.5;stroke-linecap:round;stroke-miterlimit:10;}
	.st21{fill:none;stroke:#55C4F0;stroke-width:1.4;stroke-linecap:round;stroke-miterlimit:10;}
</style>
<path class="st0" d="M20.5,43.4c0.7,0,1.3,0,1.9,0c1.4,0,1.4,0,1.4-1.4c0-0.9,0-1.9,0-2.9c4.7,0,9.2,0,13.9,0c0-2.6,0-5.2,0-7.8
	c-0.6,0-1.1,0-1.8,0c0-1.9,0-3.6,0-5.5c9.4,0,18.7,0,28.2,0c0,1.8,0,3.6,0,5.4c-0.4,0-0.7,0-1.2,0.1c0,2.6,0,5.1,0,7.7
	c5,0,10,0,15.1,0c0,1.1,0,2.2,0,3.3c0,1.3,0,1,1,1.1c0.1,0,0.2,0,0.4,0c0,0.3,0.1,0.6,0.1,0.9c0,9.6,0,19.2,0,28.8c0,1,0,1-1,1
	c-4.4,0-8.8,0-13.3,0c-2.6,0-5.2,0.1-7.8,0.1c-4.1,0-8.1,0-12.2,0c-8,0-16-0.1-24-0.1c-0.6,0-0.8-0.1-0.8-0.8c0-9.7,0-19.4,0-29.1
	C20.5,44,20.5,43.7,20.5,43.4z M78.1,72.6c0-0.3,0-0.5,0-0.8c0-7,0-14,0-21c0-0.7-0.2-0.9-0.9-0.9c-6.1,0-12.2,0-18.2,0
	c-0.6,0-0.8,0.2-0.8,0.8c0,7,0,14,0,21c0,0.3,0,0.5,0,0.8C64.9,72.6,71.5,72.6,78.1,72.6z M41.8,72.6c0-0.3,0-0.5,0-0.7
	c0-7,0-14,0-21c0-0.7-0.2-0.9-0.9-0.9c-6,0-12.1,0-18.1,0c-0.7,0-1,0.2-1,0.9c0,6.9,0,13.8,0,20.8c0,0.3,0,0.6,0,0.9
	C28.6,72.6,35.1,72.6,41.8,72.6z M54.3,72.6c0-5.5,0.1-11,0-16.5c0-2.2-1.9-3.9-4.1-4c-2.6-0.1-4.4,1.8-4.4,4.5c0,5.1,0,10.1,0,15.2
	c0,0.2,0,0.5,0,0.8C48.7,72.6,51.4,72.6,54.3,72.6z M43.3,46.8c0,8.6,0,17.2,0,25.7c1,0.2,1,0.2,1-0.8c0-5.3,0-10.5,0-15.8
	c0.1-3.3,3.4-5.9,6.7-5.2c2.9,0.6,4.7,2.8,4.7,5.8c0,5,0,10.1,0,15.1c0,0.3,0,0.6,0,0.9c0.4,0,0.6,0,0.9,0c0-8.6,0-17.2,0-25.8
	C52.2,46.8,47.8,46.8,43.3,46.8z M62.7,27.3c-8.5,0-16.9,0-25.3,0c0,0.9,0,1.7,0,2.5c8.3,0,16.5,0,24.7,0c0.1,0,0.2,0,0.2,0
	c0.1-0.1,0.4-0.3,0.4-0.4C62.7,28.7,62.7,28,62.7,27.3z M61.4,38c-7.4,0-14.8,0-22.1,0c0,0.9,0,1.8,0,2.7c7.4,0,14.8,0,22.1,0
	C61.4,39.8,61.4,38.9,61.4,38z M55.5,31.3c-3.6,0-7.1,0-10.8,0c0,1.5,0,2.9,0,4.4c0,0.6,0.2,0.8,0.8,0.8c3.1,0,6.2,0,9.2,0
	c0.2,0,0.5,0,0.8-0.1C55.5,34.7,55.5,33.1,55.5,31.3z M61.4,43.4c0.1-1.2,0.1-1.2-0.9-1.2c-6.8,0-13.6,0-20.4,0
	c-1.1,0-1.1,0.1-0.8,1.2c1.3,0,2.6,0,4,0c0,0.7,0,1.3,0,1.9c4.5,0,8.9,0,13.5,0c0-0.7,0-1.3,0-1.9C58.4,43.4,59.9,43.4,61.4,43.4z
	 M63,43.3c0.3,0,0.5,0,0.8,0c1.9,0,3.8,0,5.7,0c2.1,0,4.3,0,6.4,0c0.2,0,0.6-0.2,0.7-0.3c0.1-0.8,0-1.6,0-2.4c-4.6,0-9.1,0-13.6,0
	C63,41.5,63,42.4,63,43.3z M25.3,43.3c4.2,0,8.2,0,12.3,0c0-0.9,0-1.8,0-2.7c-4.1,0-8.2,0-12.3,0C25.3,41.5,25.3,42.4,25.3,43.3z
	 M61.4,31.3c-1.6,0-3,0-4.5,0c0,1.6,0,3.1,0,4.6c0,0.1,0,0.3,0.1,0.5c1.4,0,2.7,0,4,0c0.1,0,0.4-0.3,0.4-0.4
	C61.5,34.5,61.4,32.9,61.4,31.3z M39.2,31.3c0,1.6,0,3.2,0,4.8c0,0.1,0.3,0.4,0.5,0.4c0.7,0,1.4,0,2.1,0c1.8,0,1.5,0.2,1.5-1.5
	c0-1.2,0-2.4,0-3.6C41.9,31.3,40.6,31.3,39.2,31.3z M62.1,44.9c0,1.2,0,2.4,0,3.7c1,0,1.9,0,2.9,0c0.1,0,0.3-0.2,0.3-0.3
	c0-1.1,0-2.2,0-3.3C64.2,44.9,63.2,44.9,62.1,44.9z M35.2,44.9c0,1.1,0,2.2,0,3.3c0,0.1,0.2,0.4,0.3,0.4c1,0,1.9,0,2.9,0
	c0-1.3,0-2.5,0-3.7C37.3,44.9,36.3,44.9,35.2,44.9z M25.7,44.9c0,1.1,0,2.2,0,3.3c0,0.1,0.2,0.4,0.3,0.4c1,0,1.9,0,2.9,0
	c0-1.3,0-2.5,0-3.7C27.9,44.9,26.9,44.9,25.7,44.9z M30.5,48.5c1,0,1.9,0,2.8,0c0.1,0,0.4-0.2,0.4-0.3c0-1.1,0-2.2,0-3.4
	c-1.1,0-2.2,0-3.2,0C30.5,46.1,30.5,47.3,30.5,48.5z M74.7,48.5c0-1.2,0-2.4,0-3.6c-1.1,0-2.1,0-3.2,0c0,1.2,0,2.4,0,3.6
	C72.6,48.5,73.6,48.5,74.7,48.5z M70,44.9c-1.1,0-2.1,0-3.1,0c0,1.2,0,2.4,0,3.6c1.1,0,2.1,0,3.1,0C70,47.3,70,46.1,70,44.9z
	 M21.9,44.9c0,1.2,0,2.2,0,3.3c0,0.1,0.2,0.3,0.3,0.3c0.7,0,1.4,0,2,0c0-1.3,0-2.5,0-3.7C23.5,44.9,22.7,44.9,21.9,44.9z M58.2,48.5
	c0.8,0,1.6,0,2.3,0c0-1.2,0-2.4,0-3.6c-0.8,0-1.6,0-2.3,0C58.2,46.1,58.2,47.3,58.2,48.5z M39.9,48.4c0.7,0,1.3,0,1.9,0
	c0-1.3,0-2.4,0-3.6c-0.7,0-1.2,0-1.9,0C39.9,46.1,39.9,47.2,39.9,48.4z M76.2,48.5c0.5,0,1,0,1.5,0c0.2,0,0.4-0.2,0.4-0.4
	c0-1.1,0-2.2,0-3.3c-0.7,0-1.3,0-1.9,0C76.2,46.1,76.2,47.2,76.2,48.5z"/>
<path class="st0" d="M63.9,52.1c0,2.2,0,4.4,0,6.6c-0.5,0-0.9,0-1.4,0c0-1,0-2,0-2.9c0-0.9,0-1.8,0-2.7
	C62.5,51.9,62.6,51.8,63.9,52.1z"/>
<path class="st0" d="M67.5,52c0.5,0,0.9,0,1.3,0c0,2.2,0,4.4,0,6.6c-0.4,0-0.9,0-1.3,0C67.5,56.5,67.5,54.3,67.5,52z"/>
<path class="st0" d="M74.4,58.7c-0.5,0-0.9,0-1.4,0c0-2.2,0-4.4,0-6.6c0.4,0,0.9,0,1.4,0C74.4,54.2,74.4,56.4,74.4,58.7z"/>
<path class="st0" d="M26.2,52c0.5,0,0.9,0,1.3,0c0,2.2,0,4.4,0,6.6c-0.4,0-0.9,0-1.3,0C26.2,56.5,26.2,54.3,26.2,52z"/>
<path class="st0" d="M31.2,52c0.5,0,0.9,0,1.3,0c0,2.2,0,4.4,0,6.6c-0.4,0-0.9,0-1.3,0C31.2,56.5,31.2,54.3,31.2,52z"/>
<path class="st0" d="M38.1,58.7c-0.5,0-1,0-1.4,0c0-2.2,0-4.4,0-6.7c0.4,0,0.7,0,1,0c0.2,0,0.4,0.2,0.4,0.4
	C38.1,54.5,38.1,56.5,38.1,58.7z"/>
</svg>
