<svg xmlns="http://www.w3.org/2000/svg" viewBox="0 0 383.24 309.24"><g id="Layer_2" data-name="Layer 2"><g id="Layer_1-2" data-name="Layer 1"><path d="M383.24,139.65c-.87,5.89-1.54,11.83-2.64,17.68-7.29,38.65-26,71.12-54.13,98.24-26.79,25.87-58.22,43.55-95,50.5-40.45,7.65-78.55,2-112.36-22.88-24.22-17.82-39.45-41.86-46.57-71.05-1.31-5.36-1.28-5.37-6.67-5.37H42.25c-3.83,0-6.85-1.39-8.2-5.23-1.68-4.8,1.78-9.55,7.24-9.67,7.73-.16,15.47-.06,23.21-.06h4.35C66.09,136.89,87.19,92,125.45,53.14h-4.57q-33.87,0-67.74,0a26.63,26.63,0,0,1-4.47-.23,7.33,7.33,0,0,1-.2-14.37,27.39,27.39,0,0,1,5.21-.34c28.57,0,57.13,0,85.7-.12a13.09,13.09,0,0,0,7.11-2.35c25.22-18.19,53-30.18,83.89-34.29,22.4-3,44.53-1.43,66.13,5.7,3.15,1,5.74,2.56,6.54,6,1.39,5.93-3.91,10.19-10.27,8.59-8.08-2-16.15-4.39-24.38-5.48-27-3.58-53,.68-77.78,11.64-45.85,20.29-78.86,53.4-97.34,100.32a141,141,0,0,0-9.5,60.11c.15,2.77,1,3.73,3.77,3.54,3.35-.22,6.73-.08,10.1-.13a2.9,2.9,0,0,0,.95-.34c0-4.92-.12-9.77,0-14.62.91-30.46,11.59-57.46,29.78-81.51C150.15,66.47,178.08,46,212.85,35.76c29.66-8.74,59.25-8.87,87.41,5.33,31.1,15.69,48.31,41.72,52.21,76.12,3.72,32.93-5.83,62.78-24.17,89.77-23.59,34.73-55.58,58.24-96.61,68.4-26.49,6.56-52.74,5.62-77.85-6.09-25.58-11.94-42.41-31.75-50.73-58.68-1-3.17-2.36-4.12-5.45-3.9-3.45.25-6.94.06-11.49.06,2.28,6.73,3.9,13.08,6.5,19,17.51,39.73,48.5,61.86,91.07,67.21,42.81,5.39,80.85-7.85,114.82-33.3,31.78-23.81,54.13-54.54,64.61-93.19,8.59-31.72,7-62.72-8.42-92.28-3-5.82-7-11.16-10.75-16.6-3.07-4.48-2.93-8.82.69-11.57s7.91-1.79,11.29,2.55c15.68,20.13,24.29,43,26.61,68.33a31,31,0,0,0,.65,3.27ZM117.62,206.77c.31,1.14.41,1.62.56,2.08.36,1.06.68,2.14,1.11,3.17,13.56,32.59,38.79,48.78,73.21,51.87,7.36.66,7.38.41,9-6.66a19.66,19.66,0,0,1,.59-2.16,7.47,7.47,0,0,1,8.39-5.28,7.39,7.39,0,0,1,6.05,8.18c-.13,1.67-.45,3.32-.7,5C269.08,256.92,320.25,210.6,333,162.1c-1.43,0-2.78,0-4.13,0-4.67-.18-7.75-3.07-7.83-7.31-.08-4.43,3-7.49,7.88-7.63,2.59-.07,5.19,0,8.05,0,.44-4.55,1.17-8.76,1.18-13a118.29,118.29,0,0,0-.88-18.27C331.12,76.31,301.75,49,261.82,45.37c-3.22-.29-5.29.06-5.43,3.88A18.68,18.68,0,0,1,255.3,54c-1.24,4-4.86,6.22-8.6,5.43s-6.23-4.1-5.85-8.32c.17-1.8.54-3.58.83-5.42-56,3.33-110.74,52.8-122.75,101.47,1.16,0,2.27,0,3.38,0,5.07.1,8.52,3.12,8.54,7.46s-3.46,7.41-8.5,7.5c-2.44,0-4.88,0-8.16,0-.14,8.86-.21,17.17-.44,25.48-.1,3.43,1.31,4.36,4.67,4.3,10.22-.22,20.45-.15,30.68,0,4.52.05,7.49,3,7.69,7s-2.78,7.39-7.37,7.82c-1.61.14-3.24.06-4.86.07Z"/><path d="M33.1,102.75c8.48,0,17,0,25.45,0,3.16,0,6,1.41,6.63,4.43.51,2.4-.21,5.23-1,7.65a4.65,4.65,0,0,1-3.56,2.33c-18.44.14-36.88.23-55.31-.08C1.9,117-.28,113,0,109.5a7.28,7.28,0,0,1,6.13-6.6,25.89,25.89,0,0,1,3.74-.17c7.73,0,15.47,0,23.2,0Z"/><path d="M46.67,259.92c6.22,0,12.44-.06,18.66,0,5,.07,8.1,2.87,8.17,7.25s-2.93,7.58-7.86,7.63q-19,.21-38.07,0c-4.83-.05-8-3.44-7.89-7.68S23,260,28,259.94C34.23,259.86,40.45,259.92,46.67,259.92Z"/><path d="M7.43,191.94a7.21,7.21,0,0,1,7.49,7.17,7.52,7.52,0,0,1-7.23,7.55A7.49,7.49,0,0,1,0,199.18,7.23,7.23,0,0,1,7.43,191.94Z"/><path d="M333.25,30.23a7.34,7.34,0,0,1-7.13,7.57,7.45,7.45,0,1,1-.25-14.89A7.32,7.32,0,0,1,333.25,30.23Z"/><path d="M248.41,86c-1.21,5.68-2.5,11.89-3.85,18.1-3.65,16.79-7.24,33.59-11.08,50.34a12.9,12.9,0,0,1-3.72,6.57c-9.27,8-18.77,15.65-28.26,23.34-4.28,3.47-9.43,2.74-11.89-1.49-2-3.43-1.11-7.14,2.59-10.19,8.07-6.67,16.24-13.23,24.2-20a10.73,10.73,0,0,0,3.39-5.39c4.46-19.93,8.71-39.9,13-59.86a27.38,27.38,0,0,1,1.38-5,7.14,7.14,0,0,1,8.3-4.16C245.87,78.86,248.38,81.93,248.41,86Z"/></g></g></svg>