<?xml version="1.0" encoding="UTF-8"?><svg xmlns="http://www.w3.org/2000/svg" viewBox="0 0 639.92 389.29"><defs><style>.d{fill:#4d4d4d;}</style></defs><g id="a"/><g id="b"><g id="c"><g><path class="d" d="M0,9.42H93.14l57.56,242.78h1.05L278.89,9.42h87.38L161.68,379.87H96.28L0,9.42Z"/><path class="d" d="M575.56,99.94c-5.58-8.37-13.79-14.56-24.59-18.57-10.82-4.01-21.28-6.02-31.39-6.02-5.94,0-12.21,.7-18.84,2.09-6.63,1.4-12.82,3.58-18.57,6.54-5.76,2.97-10.73,6.89-14.91,11.77-4.19,4.89-6.8,10.82-7.85,17.79-1.04,8.37,.43,15.26,4.45,20.67,4.01,5.41,9.76,9.94,17.27,13.6,7.5,3.66,16.22,6.89,26.16,9.68,9.94,2.8,19.96,5.94,30.09,9.42,10.11,3.49,19.96,7.68,29.56,12.56,9.59,4.89,17.87,11.08,24.86,18.58,6.97,7.5,12.12,16.92,15.44,28.25,3.31,11.34,3.74,25.03,1.31,41.07-2.79,20.59-9.16,38.55-19.1,53.89-9.94,15.35-22.16,28.08-36.63,38.2-14.48,10.12-30.7,17.62-48.66,22.5-17.97,4.88-36.54,7.33-55.73,7.33-24.07,0-45.87-3.66-65.4-10.99-19.54-7.33-37.15-19.18-52.85-35.58l67.5-63.83c6.97,11.17,16.3,19.8,27.99,25.9,11.68,6.11,24.33,9.16,37.94,9.16,6.62,0,13.42-.79,20.41-2.36,6.97-1.57,13.42-3.92,19.36-7.06,5.93-3.14,10.9-7.15,14.91-12.03,4.01-4.88,6.54-10.64,7.59-17.27,1.74-11.16-1.31-19.96-9.16-26.42-7.85-6.45-17.88-11.94-30.09-16.48-12.21-4.53-25.47-9.07-39.77-13.6-14.31-4.53-27.39-10.64-39.24-18.31-11.86-7.67-21.19-17.79-27.99-30.35-6.8-12.56-8.81-29.12-6.02-49.71,2.79-19.88,9.16-37.32,19.1-52.32,9.94-14.99,22.24-27.55,36.89-37.67,14.65-10.11,30.87-17.7,48.66-22.76,17.79-5.05,35.75-7.59,53.89-7.59,20.93,0,40.72,2.97,59.39,8.9,18.66,5.94,34.79,15.88,48.4,29.82l-64.36,61.22Z"/></g></g></g></svg>